<svg width="20" height="20" viewBox="0 0 20 20" fill="none" xmlns="http://www.w3.org/2000/svg">
<path d="M9.99935 8.33335C11.8403 8.33335 13.3327 6.84097 13.3327 5.00002C13.3327 3.15907 11.8403 1.66669 9.99935 1.66669C8.1584 1.66669 6.66602 3.15907 6.66602 5.00002C6.66602 6.84097 8.1584 8.33335 9.99935 8.33335Z" stroke="white" stroke-width="1.25"/>
<path d="M14.9993 16.6667C16.8403 16.6667 18.3327 15.1743 18.3327 13.3333C18.3327 11.4924 16.8403 10 14.9993 10C13.1584 10 11.666 11.4924 11.666 13.3333C11.666 15.1743 13.1584 16.6667 14.9993 16.6667Z" stroke="white" stroke-width="1.25"/>
<path d="M13.8906 13.3334L14.5848 14.1667L16.1123 12.5925" stroke="white" stroke-width="1.25" stroke-linecap="round" stroke-linejoin="round"/>
<path d="M12.5007 11.1059C11.68 10.9226 10.8415 10.8312 10.0007 10.8334C6.31898 10.8334 3.33398 12.5125 3.33398 14.5834C3.33398 16.6542 3.33398 18.3334 10.0007 18.3334C14.7398 18.3334 16.1098 17.485 16.5065 16.25" stroke="white" stroke-width="1.25"/>
</svg>
