<svg width="20" height="20" viewBox="0 0 20 20" fill="none" xmlns="http://www.w3.org/2000/svg">
<path d="M18.3327 8.33337C18.3477 8.93921 18.3327 9.21171 18.3327 10C18.3327 13.1425 18.3327 14.7142 17.356 15.69C16.3793 16.6659 14.8085 16.6667 11.666 16.6667H8.33268C5.19018 16.6667 3.61852 16.6667 2.64268 15.69C1.66685 14.7134 1.66602 13.1425 1.66602 10C1.66602 6.85754 1.66602 5.28587 2.64268 4.31004C3.61935 3.33421 5.19018 3.33337 8.33268 3.33337H10.8327" stroke="white" stroke-width="1.25" stroke-linecap="round"/>
<path d="M5 6.66669L6.79917 8.16669C8.33 9.44169 9.095 10.0792 10 10.0792C10.905 10.0792 11.6708 9.44169 13.2008 8.16585" stroke="white" stroke-width="1.25" stroke-linecap="round"/>
<path d="M15.834 6.66669C17.2147 6.66669 18.334 5.5474 18.334 4.16669C18.334 2.78598 17.2147 1.66669 15.834 1.66669C14.4533 1.66669 13.334 2.78598 13.334 4.16669C13.334 5.5474 14.4533 6.66669 15.834 6.66669Z" stroke="white" stroke-width="1.25"/>
</svg>
