<svg width="20" height="20" viewBox="0 0 20 20" fill="none" xmlns="http://www.w3.org/2000/svg">
<path d="M1.66602 9.16669C1.66602 6.81002 1.66602 5.63085 2.39852 4.89919C3.13018 4.16669 4.30935 4.16669 6.66602 4.16669H10.8327C13.1893 4.16669 14.3685 4.16669 15.1002 4.89919C15.8327 5.63085 15.8327 6.81002 15.8327 9.16669C15.8327 11.5234 15.8327 12.7025 15.1002 13.4342C14.3685 14.1667 13.1893 14.1667 10.8327 14.1667H6.66602C4.30935 14.1667 3.13018 14.1667 2.39852 13.4342C1.66602 12.7025 1.66602 11.5234 1.66602 9.16669Z" stroke="white" stroke-width="1.25"/>
<path d="M15.8338 6.73004C16.6463 6.81004 17.193 6.99087 17.6013 7.39921C18.3346 8.13087 18.3346 9.31004 18.3346 11.6667C18.3346 14.0234 18.3346 15.2025 17.6013 15.9342C16.8696 16.6675 15.6905 16.6675 13.3346 16.6675H9.16797C6.80964 16.6675 5.6313 16.6675 4.89964 15.9342C4.4913 15.5259 4.31047 14.9792 4.23047 14.1667" stroke="white" stroke-width="1.25"/>
<path d="M10.8327 9.16671C10.8327 9.71924 10.6132 10.2491 10.2225 10.6398C9.83179 11.0305 9.30188 11.25 8.74935 11.25C8.19681 11.25 7.66691 11.0305 7.27621 10.6398C6.88551 10.2491 6.66602 9.71924 6.66602 9.16671C6.66602 8.61417 6.88551 8.08427 7.27621 7.69357C7.66691 7.30287 8.19681 7.08337 8.74935 7.08337C9.30188 7.08337 9.83179 7.30287 10.2225 7.69357C10.6132 8.08427 10.8327 8.61417 10.8327 9.16671Z" stroke="white" stroke-width="1.25"/>
<path d="M13.3327 10.8333V7.5M4.16602 10.8333V7.5" stroke="white" stroke-width="1.25" stroke-linecap="round"/>
</svg>
