<svg width="20" height="20" viewBox="0 0 20 20" fill="none" xmlns="http://www.w3.org/2000/svg">
<path d="M14.9993 16.6667C16.8403 16.6667 18.3327 15.1743 18.3327 13.3333C18.3327 11.4924 16.8403 10 14.9993 10C13.1584 10 11.666 11.4924 11.666 13.3333C11.666 15.1743 13.1584 16.6667 14.9993 16.6667Z" stroke="white" stroke-width="1.25"/>
<path d="M4.99935 16.6667C6.8403 16.6667 8.33268 15.1743 8.33268 13.3333C8.33268 11.4924 6.8403 10 4.99935 10C3.1584 10 1.66602 11.4924 1.66602 13.3333C1.66602 15.1743 3.1584 16.6667 4.99935 16.6667Z" stroke="white" stroke-width="1.25"/>
<path d="M11.666 13.5116L11.1193 13.3166C10.395 13.0583 9.60366 13.0583 8.87935 13.3166L8.33268 13.5116M1.66602 13.3333L2.30185 6.33748C2.39768 5.28415 2.44602 4.75748 2.75435 4.36831C3.06268 3.97915 3.56435 3.81165 4.56768 3.47665L4.99935 3.33331M18.3327 13.3333L17.6968 6.33748C17.601 5.28415 17.5535 4.75748 17.2452 4.36831C16.9368 3.97915 16.4343 3.81165 15.431 3.47665L14.9993 3.33331" stroke="white" stroke-width="1.25" stroke-linecap="round"/>
</svg>
