<svg width="20" height="20" viewBox="0 0 20 20" fill="none" xmlns="http://www.w3.org/2000/svg">
<path opacity="0.987" fill-rule="evenodd" clip-rule="evenodd" d="M9.01375 1.32624C9.92 1.22499 10.4563 1.22499 11.43 1.32624C13.1537 1.58136 14.7515 2.3781 15.9925 3.60124C15.1539 4.39391 14.3263 5.19816 13.51 6.01374C11.9467 4.68874 10.2017 4.38291 8.275 5.09624C6.86167 5.74624 5.8775 6.79958 5.3225 8.25624C4.41555 7.58103 3.52042 6.89009 2.6375 6.18374C2.57614 6.15145 2.50606 6.13962 2.4375 6.14999C3.84 3.44583 6.03167 1.83749 9.0125 1.32499" fill="#F44336"/>
<path opacity="0.997" fill-rule="evenodd" clip-rule="evenodd" d="M2.43282 6.14998C2.50365 6.13915 2.57073 6.1504 2.63407 6.18373C3.51698 6.89008 4.41212 7.58102 5.31907 8.25623C5.17635 8.82381 5.08638 9.40335 5.05031 9.98748C5.08115 10.5525 5.17073 11.1071 5.31907 11.6512L2.50032 13.895C1.27282 11.33 1.25032 8.74832 2.43282 6.14998Z" fill="#FFC107"/>
<path opacity="0.999" fill-rule="evenodd" clip-rule="evenodd" d="M15.8561 16.6125C14.9784 15.8385 14.0596 15.1124 13.1036 14.4375C14.0619 13.7608 14.6436 12.8325 14.8486 11.6525H10.1523V8.39123C12.8607 8.36873 15.5678 8.39165 18.2736 8.45998C18.7869 11.2475 18.194 13.7608 16.4948 16C16.2928 16.2148 16.0788 16.4192 15.8561 16.6125Z" fill="#448AFF"/>
<path opacity="0.993" fill-rule="evenodd" clip-rule="evenodd" d="M5.31875 11.6525C6.34375 14.2 8.22292 15.3891 10.9562 15.22C11.7235 15.1311 12.4592 14.8631 13.1037 14.4375C14.0604 15.1141 14.9779 15.8391 15.8562 16.6125C14.4646 17.863 12.6901 18.6051 10.8225 18.7175C10.3982 18.7514 9.97182 18.7514 9.5475 18.7175C6.36583 18.3425 4.01667 16.735 2.5 13.895L5.31875 11.6525Z" fill="#43A047"/>
</svg>
