<svg width="20" height="20" viewBox="0 0 20 20" fill="none" xmlns="http://www.w3.org/2000/svg">
<path d="M13.3333 3.33499C15.1458 3.34499 16.1275 3.42583 16.7675 4.06583C17.5 4.79833 17.5 5.97666 17.5 8.33332V13.3333C17.5 15.6908 17.5 16.8692 16.7675 17.6017C16.0358 18.3333 14.8567 18.3333 12.5 18.3333H7.5C5.14333 18.3333 3.96417 18.3333 3.2325 17.6017C2.5 16.8683 2.5 15.6908 2.5 13.3333V8.33332C2.5 5.97666 2.5 4.79833 3.2325 4.06583C3.8725 3.42583 4.85417 3.34499 6.66667 3.33499" stroke="white" stroke-width="1.25"/>
<path d="M5.83398 12.0833H12.5007M5.83398 15H10.4173" stroke="white" stroke-width="1.25" stroke-linecap="round"/>
<path d="M6.66602 2.91666C6.66602 2.58514 6.79771 2.26719 7.03213 2.03277C7.26655 1.79835 7.58449 1.66666 7.91602 1.66666H12.0827C12.4142 1.66666 12.7321 1.79835 12.9666 2.03277C13.201 2.26719 13.3327 2.58514 13.3327 2.91666V3.74999C13.3327 4.08151 13.201 4.39945 12.9666 4.63387C12.7321 4.86829 12.4142 4.99999 12.0827 4.99999H7.91602C7.58449 4.99999 7.26655 4.86829 7.03213 4.63387C6.79771 4.39945 6.66602 4.08151 6.66602 3.74999V2.91666Z" stroke="white" stroke-width="1.25"/>
</svg>
