<svg width="20" height="20" viewBox="0 0 20 20" fill="none" xmlns="http://www.w3.org/2000/svg">
<path d="M1.66602 8.33335C1.66602 5.19085 1.66602 3.61919 2.64268 2.64335C3.61935 1.66752 5.19018 1.66669 8.33268 1.66669H11.666C14.8085 1.66669 16.3802 1.66669 17.356 2.64335C18.3318 3.62002 18.3327 5.19085 18.3327 8.33335V9.16669C18.3327 11.5234 18.3327 12.7025 17.6002 13.4342C16.8685 14.1667 15.6893 14.1667 13.3327 14.1667H6.66602C4.30935 14.1667 3.13018 14.1667 2.39852 13.4342C1.66602 12.7025 1.66602 11.5234 1.66602 9.16669V8.33335Z" stroke="white" stroke-width="1.25"/>
<path d="M13.3327 18.3334H6.66602M9.99935 14.1667V18.3334M18.3327 10.8334H1.66602" stroke="white" stroke-width="1.25" stroke-linecap="round"/>
</svg>
