<svg width="20" height="20" viewBox="0 0 20 20" fill="none" xmlns="http://www.w3.org/2000/svg">
<path d="M2.91602 9.16669V11.6667C2.91602 14.8092 2.91602 16.3809 3.89268 17.3567C4.86935 18.3325 6.44018 18.3334 9.58268 18.3334H10.416C13.5585 18.3334 15.1302 18.3334 16.106 17.3567C17.0818 16.38 17.0827 14.8092 17.0827 11.6667V9.16669" stroke="white" stroke-width="1.25"/>
<path d="M7.91716 1.66669H12.0838L12.6272 7.09752C12.663 7.46399 12.6217 7.8339 12.506 8.18346C12.3902 8.53302 12.2027 8.8545 11.9553 9.12723C11.7079 9.39996 11.4062 9.6179 11.0695 9.76705C10.7329 9.9162 10.3687 9.99325 10.0005 9.99325C9.63228 9.99325 9.26814 9.9162 8.93148 9.76705C8.59483 9.6179 8.29311 9.39996 8.04572 9.12723C7.79833 8.8545 7.61075 8.53302 7.49503 8.18346C7.37932 7.8339 7.33803 7.46399 7.37383 7.09752L7.91716 1.66669Z" stroke="white" stroke-width="1.25"/>
<path d="M2.77437 4.45919C2.9227 3.71752 2.99687 3.34669 3.1477 3.04585C3.30487 2.73255 3.52615 2.4558 3.7972 2.23356C4.06825 2.01132 4.38301 1.84857 4.72103 1.75585C5.04603 1.66669 5.42437 1.66669 6.18104 1.66669H7.91603L7.31187 7.70419C7.27998 8.04971 7.17792 8.38509 7.01191 8.6898C6.84591 8.99451 6.61947 9.26213 6.34644 9.47629C6.07342 9.69044 5.75956 9.84662 5.42408 9.93526C5.0886 10.0239 4.73856 10.0431 4.39539 9.99181C4.05221 9.94047 3.72313 9.81964 3.42828 9.6367C3.13342 9.45376 2.87901 9.21257 2.68061 8.9279C2.48221 8.64322 2.34399 8.32105 2.27443 7.9811C2.20486 7.64115 2.20541 7.29058 2.27603 6.95085L2.77437 4.45919ZM17.2244 4.45919C17.076 3.71752 17.0019 3.34669 16.851 3.04585C16.6939 2.73255 16.4726 2.4558 16.2015 2.23356C15.9305 2.01132 15.6157 1.84857 15.2777 1.75585C14.9527 1.66669 14.5744 1.66669 13.8177 1.66669H12.0827L12.6869 7.70419C12.7188 8.04971 12.8208 8.38509 12.9868 8.6898C13.1528 8.99451 13.3793 9.26213 13.6523 9.47629C13.9253 9.69044 14.2392 9.84662 14.5747 9.93526C14.9101 10.0239 15.2602 10.0431 15.6033 9.99181C15.9465 9.94047 16.2756 9.81964 16.5705 9.6367C16.8653 9.45376 17.1197 9.21257 17.3181 8.9279C17.5165 8.64322 17.6547 8.32105 17.7243 7.9811C17.7939 7.64115 17.7933 7.29058 17.7227 6.95085L17.2244 4.45919Z" stroke="white" stroke-width="1.25"/>
<path d="M7.91602 17.9167V15.4167C7.91602 14.6375 7.91602 14.2483 8.08352 13.9583C8.19322 13.7683 8.35101 13.6105 8.54102 13.5008C8.83102 13.3333 9.22018 13.3333 9.99935 13.3333C10.7785 13.3333 11.1677 13.3333 11.4577 13.5008C11.6477 13.6105 11.8055 13.7683 11.9152 13.9583C12.0827 14.2483 12.0827 14.6375 12.0827 15.4167V17.9167" stroke="white" stroke-width="1.25" stroke-linecap="round"/>
</svg>
