<svg width="40" height="40" viewBox="0 0 40 40" fill="none" xmlns="http://www.w3.org/2000/svg">
<path fill-rule="evenodd" clip-rule="evenodd" d="M2.14785 4.60501C2.25247 4.29057 2.47768 4.03054 2.77396 3.88208C3.07024 3.73363 3.41334 3.70891 3.72785 3.81334L4.16951 3.96168L4.23618 3.98334C5.27951 4.33168 6.16118 4.62501 6.85618 4.94834C7.59285 5.29168 8.23285 5.71501 8.71785 6.39001C9.20285 7.06168 9.40451 7.80334 9.49618 8.61167C9.58285 9.37168 9.58285 10.3017 9.58285 11.4017V15.8333C9.58285 18.225 9.58618 19.895 9.75451 21.1533C9.91951 22.3767 10.2212 23.0233 10.6812 23.485C11.1428 23.9467 11.7912 24.2467 13.0145 24.4117C14.2728 24.58 15.9412 24.5833 18.3328 24.5833H29.9995C30.1637 24.5833 30.3262 24.6157 30.4779 24.6785C30.6295 24.7413 30.7673 24.8334 30.8834 24.9495C30.9995 25.0655 31.0915 25.2033 31.1544 25.355C31.2172 25.5066 31.2495 25.6692 31.2495 25.8333C31.2495 25.9975 31.2172 26.16 31.1544 26.3117C31.0915 26.4634 30.9995 26.6012 30.8834 26.7172C30.7673 26.8333 30.6295 26.9254 30.4779 26.9882C30.3262 27.051 30.1637 27.0833 29.9995 27.0833H18.2412C15.9628 27.0833 14.1245 27.0833 12.6795 26.8883C11.1795 26.6883 9.91618 26.255 8.91285 25.2533C7.91118 24.25 7.47951 22.9867 7.27785 21.4867C7.08285 20.0417 7.08285 18.2033 7.08285 15.925V11.4717C7.08285 10.2833 7.08285 9.49668 7.01285 8.89501C6.94618 8.32501 6.83451 8.05001 6.68951 7.85168C6.54618 7.65168 6.32118 7.45668 5.80118 7.21501C5.25118 6.96001 4.50618 6.70834 3.37951 6.33168L2.93785 6.18501C2.62371 6.08004 2.36407 5.8547 2.21595 5.55846C2.06783 5.26221 2.04334 4.9193 2.14785 4.60501Z" fill="#4CE059"/>
<path opacity="0.5" d="M9.57422 10C9.58089 10.4333 9.58366 10.9006 9.58255 11.4017V15.8333C9.58255 18.225 9.58589 19.895 9.75422 21.1533C9.77977 21.3367 9.80755 21.5078 9.83755 21.6667H26.7042C28.3026 21.6667 29.1009 21.6667 29.7276 21.2533C30.3542 20.84 30.6692 20.1067 31.2976 18.6367L32.0142 16.97C33.3626 13.82 34.0359 12.2483 33.2959 11.1233C32.5559 9.99833 30.8426 10 27.4159 10H9.57422Z" fill="#4CE059"/>
<path d="M12.5 30C13.163 30 13.7989 30.2634 14.2678 30.7322C14.7366 31.2011 15 31.837 15 32.5C15 33.163 14.7366 33.7989 14.2678 34.2678C13.7989 34.7366 13.163 35 12.5 35C11.837 35 11.2011 34.7366 10.7322 34.2678C10.2634 33.7989 10 33.163 10 32.5C10 31.837 10.2634 31.2011 10.7322 30.7322C11.2011 30.2634 11.837 30 12.5 30ZM30 32.5C30 31.837 29.7366 31.2011 29.2678 30.7322C28.7989 30.2634 28.163 30 27.5 30C26.837 30 26.2011 30.2634 25.7322 30.7322C25.2634 31.2011 25 31.837 25 32.5C25 33.163 25.2634 33.7989 25.7322 34.2678C26.2011 34.7366 26.837 35 27.5 35C28.163 35 28.7989 34.7366 29.2678 34.2678C29.7366 33.7989 30 33.163 30 32.5Z" fill="#4CE059"/>
</svg>
