<svg width="200" height="64" viewBox="0 0 200 64" fill="none" xmlns="http://www.w3.org/2000/svg">
<g clip-path="url(#clip0_66_2217)">
<path d="M-0.0292969 47.6696V15.5881L27.7534 -0.453888L55.5386 15.5881V47.6696L27.7534 63.7091L-0.0292969 47.6696Z" fill="#101823"/>
<path d="M12.227 37.4449V41.1288L6.79492 44.277V37.2893L11.3381 34.8819V22.6597L7.45418 20.4079V33.6276L9.14801 32.8721V26.119C8.97219 26.0365 8.83027 25.8958 8.74631 25.7207C8.66235 25.5456 8.6415 25.3468 8.6873 25.1581C8.73309 24.9694 8.84271 24.8023 8.9976 24.6852C9.15248 24.568 9.3431 24.508 9.53716 24.5153C9.73122 24.5226 9.91679 24.5967 10.0624 24.7252C10.2081 24.8536 10.3049 25.0285 10.3364 25.2201C10.3678 25.4117 10.3321 25.6084 10.2353 25.7767C10.1384 25.945 9.98632 26.0746 9.8048 26.1437V33.3042L6.79492 34.6498V19.2646L11.9974 22.2819V35.2795L7.45418 37.6844V43.1338L11.5678 40.7634V38.5412L9.99739 39.3782C9.98561 39.571 9.90776 39.7537 9.77696 39.8958C9.64615 40.0378 9.47039 40.1304 9.27928 40.1579C9.08818 40.1855 8.89341 40.1463 8.72781 40.0471C8.5622 39.9478 8.43588 39.7945 8.37012 39.6129C8.30437 39.4314 8.3032 39.2327 8.36682 39.0504C8.43044 38.8681 8.55495 38.7133 8.71938 38.6121C8.8838 38.5109 9.0781 38.4694 9.26951 38.4948C9.46093 38.5201 9.63777 38.6106 9.77023 38.7511L12.227 37.4449Z" fill="#101823"/>
<path d="M27.2992 7.05969V10.5387L23.0548 13.0646V15.2473L19.9091 17.2548C19.9191 17.3035 19.9241 17.3531 19.9239 17.4029C19.9239 17.5699 19.8744 17.7332 19.7816 17.872C19.6888 18.0109 19.5569 18.1192 19.4026 18.1831C19.2483 18.247 19.0785 18.2637 18.9147 18.2311C18.7509 18.1985 18.6004 18.1181 18.4824 18C18.3643 17.8819 18.2838 17.7315 18.2512 17.5676C18.2187 17.4038 18.2354 17.2341 18.2993 17.0798C18.3632 16.9254 18.4714 16.7936 18.6103 16.7008C18.7492 16.608 18.9124 16.5585 19.0795 16.5585C19.2469 16.5587 19.4104 16.6095 19.5486 16.7041L22.3955 14.8869V13.4671L16.7881 16.9436C16.7907 16.9823 16.7907 17.0211 16.7881 17.0597C16.7875 17.2482 16.7235 17.431 16.6064 17.5787C16.4894 17.7264 16.326 17.8303 16.1426 17.8739C15.9592 17.9175 15.7665 17.898 15.5955 17.8188C15.4245 17.7395 15.2852 17.605 15.1999 17.4369C15.1146 17.2688 15.0884 17.0769 15.1255 16.8921C15.1625 16.7073 15.2607 16.5403 15.4041 16.4181C15.5476 16.2959 15.728 16.2255 15.9164 16.2182C16.1047 16.211 16.29 16.2673 16.4424 16.3782L22.3807 12.6943L22.5363 12.6029L26.6227 10.1683V8.21525L8.97329 18.5856L10.4054 19.4597L13.1486 17.9066L15.8646 19.514L13.2572 21.0301L15.2326 22.1486L15.077 22.2375L14.5832 22.5313L11.9412 21.0375L14.5733 19.5091L13.1461 18.6671L10.398 20.2227L7.69922 18.5733L27.2992 7.05969Z" fill="#101823"/>
<path d="M27.1186 11.7487V15.2943L26.4618 15.6721V12.9215L24.5186 14.1092V16.7956L23.8594 17.1758V13.7388L27.1186 11.7487Z" fill="#101823"/>
<path d="M27.2046 16.1314V22.6079L19.8984 26.8252L14.291 23.5882L15.3725 22.9635L15.4885 22.8968L15.5058 22.8869L26.7478 16.3956L27.0811 16.203L27.1182 16.1808L27.2046 16.1314Z" fill="#101823"/>
<path d="M31.5957 13.7388V17.198L30.9365 16.8153V14.1092L28.9932 12.9215V15.6943L28.334 15.3141V11.7487L31.5957 13.7388Z" fill="#101823"/>
<path d="M41.6983 23.9166L36.0909 27.1536L28.3008 22.6573V16.1808L28.3329 16.2005L28.3378 16.203L28.6168 16.3659L31.2193 17.8672L39.9304 22.8968L40.0415 22.961L40.0884 22.9882L41.6983 23.9166Z" fill="#101823"/>
<path d="M42.3457 18.6622L40.9185 19.5041L43.5506 21.0325L40.8667 22.551L40.3136 22.2449L40.2025 22.1782L42.2272 21.0375L39.6173 19.5214L42.3333 17.914L45.079 19.4671L46.5086 18.593L28.7852 8.22265V10.1757L32.9481 12.6128L33.1037 12.7017L39.0296 16.3856C39.1828 16.2747 39.3688 16.2186 39.5577 16.2263C39.7467 16.234 39.9275 16.3051 40.0711 16.428C40.2147 16.551 40.3128 16.7188 40.3495 16.9043C40.3861 17.0898 40.3593 17.2822 40.2733 17.4506C40.1872 17.619 40.047 17.7535 39.8752 17.8325C39.7034 17.9115 39.5101 17.9304 39.3262 17.8861C39.1424 17.8418 38.9788 17.737 38.8619 17.5884C38.7449 17.4398 38.6814 17.2562 38.6815 17.0671C38.6789 17.0285 38.6789 16.9897 38.6815 16.951L33.0815 13.4745V14.8943L35.9284 16.7091C36.0674 16.6165 36.2305 16.5667 36.3975 16.5659C36.5646 16.5654 36.7282 16.6145 36.8673 16.707C37.0065 16.7995 37.1152 16.9312 37.1794 17.0854C37.2437 17.2397 37.2608 17.4096 37.2285 17.5735C37.1962 17.7375 37.116 17.8882 36.998 18.0065C36.88 18.1249 36.7295 18.2056 36.5657 18.2383C36.4018 18.2711 36.2319 18.2546 36.0774 18.1907C35.923 18.1269 35.7909 18.0186 35.698 17.8797C35.6051 17.7408 35.5556 17.5774 35.5556 17.4103C35.5553 17.3606 35.5603 17.3109 35.5704 17.2622L32.4222 15.2548V13.072L28.1309 10.5412V7.05969L47.7951 18.5683L45.0963 20.2177L42.3457 18.6622Z" fill="#101823"/>
<path d="M30.8963 32.7363L33.6839 31.1339V35.5511L27.758 38.8721L21.2 35.0795V31.0277L27.3728 34.5166V31.9635L20.6543 28.0548L27.7629 24.0598L34.7802 28.0672L30.716 30.2697L27.9012 28.6079C27.7481 28.72 27.5618 28.7772 27.3722 28.7704C27.1826 28.7636 27.0009 28.6932 26.8562 28.5705C26.7115 28.4478 26.6124 28.2799 26.5748 28.094C26.5372 27.9081 26.5632 27.7149 26.6488 27.5456C26.7344 27.3763 26.8744 27.2407 27.0465 27.1608C27.2185 27.0808 27.4124 27.0611 27.597 27.1048C27.7816 27.1485 27.9461 27.2531 28.064 27.4017C28.1819 27.5503 28.2463 27.7343 28.2469 27.924C28.2507 27.9642 28.2507 28.0047 28.2469 28.045L30.7308 29.5116L33.4296 28.0499L27.7506 24.8153L21.9753 28.0647L28.0271 31.5832V35.6474L21.8543 32.1561V34.6869L27.7605 38.1017L33.0321 35.1536V32.2647L31.1457 33.3561C31.1401 33.5479 31.0686 33.7319 30.9432 33.8771C30.8178 34.0223 30.6462 34.1199 30.4573 34.1535C30.2684 34.187 30.0737 34.1544 29.906 34.0612C29.7383 33.968 29.6078 33.8198 29.5366 33.6417C29.4653 33.4635 29.4576 33.2663 29.5148 33.0831C29.5719 32.9 29.6904 32.7421 29.8504 32.6361C30.0103 32.5301 30.2018 32.4824 30.3928 32.5011C30.5838 32.5199 30.7624 32.6038 30.8987 32.7388L30.8963 32.7363Z" fill="#101823"/>
<path d="M19.3281 36.2252L13.7207 39.4622V24.5264L19.3256 27.7634L19.3281 36.2252Z" fill="#101823"/>
<path d="M27.2046 41.3807V47.8524L14.291 40.4005L19.8984 37.1635L27.2046 41.3807Z" fill="#101823"/>
<path d="M41.6983 40.0721L28.3008 47.8029V41.3289L36.0909 36.8326L41.6983 40.0721Z" fill="#101823"/>
<path d="M42.3476 26.3807C42.3472 26.5467 42.2981 26.7088 42.2064 26.8471C42.1146 26.9854 41.9843 27.0937 41.8315 27.1585L41.7575 38.0227L36.5723 35.2918V28.6647L39.5352 26.9758V32.0474C39.7148 32.1232 39.8626 32.2587 39.9536 32.431C40.0446 32.6034 40.0732 32.8019 40.0345 32.9929C39.9958 33.1839 39.8923 33.3556 39.7414 33.479C39.5906 33.6024 39.4017 33.6698 39.2068 33.6698C39.012 33.6698 38.8231 33.6024 38.6722 33.479C38.5214 33.3556 38.4178 33.1839 38.3792 32.9929C38.3405 32.8019 38.3691 32.6034 38.4601 32.431C38.5511 32.2587 38.6989 32.1232 38.8784 32.0474V28.1091L37.2414 29.0449V34.8992L41.1056 36.9363L41.1723 27.156C41.0328 27.0959 40.9122 26.9992 40.8232 26.8761C40.7343 26.753 40.6802 26.6082 40.6669 26.4569C40.6535 26.3056 40.6813 26.1535 40.7474 26.0168C40.8134 25.88 40.9152 25.7636 41.042 25.68C41.1687 25.5964 41.3158 25.5486 41.4675 25.5417C41.6192 25.5349 41.7699 25.5691 41.9038 25.641C42.0376 25.7128 42.1495 25.8194 42.2276 25.9497C42.3057 26.0799 42.3472 26.2288 42.3476 26.3807Z" fill="#101823"/>
<path d="M45.6951 33.2992V26.1387C45.5146 26.0694 45.3634 25.9399 45.2673 25.7721C45.1712 25.6042 45.136 25.4083 45.1677 25.2175C45.1994 25.0267 45.296 24.8526 45.4411 24.7248C45.5863 24.597 45.7712 24.5233 45.9645 24.516C46.1577 24.5088 46.3476 24.5685 46.5019 24.6851C46.6563 24.8017 46.7656 24.968 46.8115 25.1559C46.8573 25.3438 46.8369 25.5418 46.7536 25.7164C46.6703 25.891 46.5293 26.0314 46.3544 26.114V32.8622L48.0482 33.6177V20.4079L44.1643 22.6597V34.8819L48.7075 37.2893V44.277L43.2754 41.1288V37.4449L45.7297 38.7511C45.8627 38.6093 46.0406 38.5177 46.2333 38.4919C46.4259 38.466 46.6216 38.5075 46.7873 38.6092C46.953 38.7109 47.0785 38.8666 47.1427 39.0501C47.2068 39.2336 47.2057 39.4336 47.1395 39.6164C47.0733 39.7992 46.9461 39.9536 46.7793 40.0534C46.6125 40.1533 46.4163 40.1925 46.224 40.1645C46.0316 40.1365 45.8547 40.043 45.7233 39.8997C45.5919 39.7565 45.5139 39.5723 45.5025 39.3782L43.9519 38.5412V40.7634L48.0581 43.1461V37.6844L43.5149 35.2795V22.2819L48.7174 19.2646V34.6449L45.6951 33.2992Z" fill="#101823"/>
<path d="M27.7545 3.55603L3.44336 17.5931V45.6647L27.7545 59.6992L52.0656 45.6647V17.5931L27.7545 3.55603ZM50.3347 44.6647L48.7026 45.6079L45.4804 43.9387L43.1915 45.3141L41.036 44.2202L35.5767 47.4499C35.4487 47.3733 35.3026 47.3321 35.1534 47.3306C35.0043 47.329 34.8574 47.3671 34.7278 47.4409C34.5982 47.5148 34.4905 47.6217 34.4158 47.7509C34.3411 47.88 34.302 48.0266 34.3026 48.1758C34.3143 48.3915 34.4082 48.5946 34.5651 48.7432C34.7219 48.8918 34.9298 48.9746 35.1458 48.9746C35.3619 48.9746 35.5697 48.8918 35.7266 48.7432C35.8834 48.5946 35.9774 48.3915 35.989 48.1758C35.9891 48.1118 35.9816 48.0479 35.9668 47.9857L41.0606 44.9708L42.5248 45.7116L39.8631 47.3141C39.7005 47.2259 39.5134 47.1936 39.3306 47.222C39.1478 47.2505 38.9795 47.3383 38.8514 47.4717C38.7233 47.6052 38.6426 47.777 38.6216 47.9608C38.6007 48.1446 38.6407 48.3302 38.7355 48.4891C38.8303 48.648 38.9746 48.7713 39.1463 48.8402C39.318 48.909 39.5075 48.9196 39.6858 48.8703C39.8641 48.8209 40.0213 48.7144 40.1332 48.5671C40.245 48.4198 40.3054 48.2398 40.3051 48.0548C40.3055 47.9805 40.2955 47.9066 40.2755 47.835L45.5026 44.6844L48.0261 45.9906L39.1643 51.1067L36.4483 49.5338L34.0335 51.0005L30.3718 49.0647L41.4434 42.6178L42.7915 43.3585C42.7837 43.4025 42.7796 43.4471 42.7792 43.4918C42.7792 43.659 42.8288 43.8223 42.9217 43.9612C43.0145 44.1002 43.1466 44.2084 43.301 44.2722C43.4555 44.3361 43.6254 44.3527 43.7893 44.3199C43.9531 44.2871 44.1036 44.2064 44.2216 44.0881C44.3396 43.9697 44.4198 43.819 44.4521 43.6551C44.4844 43.4911 44.4674 43.3212 44.4031 43.167C44.3388 43.0127 44.2302 42.881 44.091 42.7885C43.9518 42.696 43.7883 42.6469 43.6211 42.6474C43.4487 42.6474 43.2805 42.7009 43.1397 42.8005L41.4335 41.8745L29.0162 49.1017L34.0582 51.7758L36.4582 50.319L38.5174 51.5067L34.7224 53.6968L29.189 50.7338V53.9437L31.9174 55.3239L27.7545 57.7017L23.6014 55.3042L26.3174 53.9239V50.7141L20.7841 53.677L16.989 51.4869L19.0483 50.2992L21.4508 51.756L26.4927 49.082L14.0755 41.8548L12.3668 42.7807C12.226 42.6812 12.0578 42.6277 11.8853 42.6276C11.7192 42.6301 11.5574 42.6815 11.4204 42.7754C11.2833 42.8693 11.177 43.0016 11.1147 43.1557C11.0525 43.3098 11.0371 43.4788 11.0705 43.6416C11.1038 43.8043 11.1845 43.9537 11.3023 44.0708C11.4202 44.188 11.57 44.2678 11.7329 44.3002C11.8959 44.3326 12.0648 44.3162 12.2185 44.2531C12.3722 44.19 12.5039 44.0829 12.597 43.9453C12.6902 43.8077 12.7407 43.6456 12.7421 43.4795C12.7458 43.4351 12.7458 43.3905 12.7421 43.3462L14.0878 42.6054L25.1619 49.0523L21.4829 51.0079L19.0705 49.5412L16.3545 51.1165L7.48287 45.998L10.0063 44.6918L15.2335 47.8424C15.2135 47.914 15.2035 47.9879 15.2039 48.0622C15.2038 48.2465 15.2643 48.4258 15.3759 48.5724C15.4876 48.7191 15.6443 48.825 15.822 48.874C15.9997 48.923 16.1886 48.9124 16.3596 48.8437C16.5307 48.775 16.6744 48.6521 16.7689 48.4938C16.8633 48.3355 16.9032 48.1506 16.8824 47.9674C16.8617 47.7843 16.7813 47.613 16.6538 47.4799C16.5263 47.3468 16.3587 47.2592 16.1766 47.2306C15.9945 47.202 15.808 47.2339 15.6458 47.3215L12.9841 45.719L14.4483 44.9783L19.5446 47.9931C19.5286 48.0551 19.5211 48.1191 19.5224 48.1832C19.5229 48.3496 19.5727 48.5122 19.6655 48.6503C19.7583 48.7884 19.89 48.896 20.0438 48.9593C20.1977 49.0227 20.367 49.039 20.5301 49.0062C20.6933 48.9734 20.8431 48.8931 20.9606 48.7752C21.0781 48.6574 21.158 48.5073 21.1903 48.3441C21.2226 48.1808 21.2058 48.0116 21.142 47.8579C21.0782 47.7042 20.9703 47.5729 20.8319 47.4805C20.6935 47.3881 20.5308 47.3387 20.3643 47.3387C20.2123 47.339 20.0631 47.3799 19.9322 47.4573L14.473 44.2202L12.3174 45.3042L10.031 43.9289L6.80879 45.598L5.18657 44.6647V18.5906L27.7668 5.55603L50.3471 18.5906L50.3347 44.6647Z" fill="#101823"/>
<path d="M27.7531 2.28937L2.3457 16.9585V46.2992L27.7531 60.9659L53.163 46.2992V16.9585L27.7531 2.28937ZM52.0642 45.6647L27.7531 59.6992L3.442 45.6647V17.5931L27.7531 3.55604L52.0642 17.5931V45.6647Z" fill="#64E766"/>
<path d="M27.8633 5.11159L27.7522 5.04739L4.73242 18.3363V44.919L6.86082 46.1536L7.01884 46.2474L16.4213 51.6795L16.5621 51.761L20.8559 54.2301L21.009 54.319L22.967 55.4474L23.13 55.5437L27.7522 58.2103L32.3744 55.5437L32.5374 55.4474L34.4954 54.319L34.646 54.2301L38.9374 51.761L39.0781 51.677L48.4806 46.2449L48.6411 46.1511L50.767 44.9165V18.3363L27.8633 5.11159ZM22.925 54.9091L21.4732 54.0721L25.6707 51.8178V53.519L22.925 54.9091ZM32.5966 54.9091L29.8411 53.519V51.8178L34.0386 54.0721L32.5966 54.9091ZM50.3398 44.6647L48.7077 45.6079L45.4855 43.9387L43.1966 45.3141L41.0337 44.2202L35.5744 47.4499C35.4464 47.3733 35.3003 47.3321 35.1511 47.3306C35.002 47.329 34.8551 47.3671 34.7255 47.4409C34.5959 47.5148 34.4882 47.6217 34.4135 47.7509C34.3388 47.88 34.2997 48.0266 34.3003 48.1758C34.312 48.3915 34.4059 48.5946 34.5628 48.7432C34.7196 48.8918 34.9275 48.9746 35.1435 48.9746C35.3596 48.9746 35.5674 48.8918 35.7243 48.7432C35.8811 48.5946 35.9751 48.3915 35.9867 48.1758C35.9868 48.1118 35.9794 48.0479 35.9645 47.9857L41.0583 44.9708L42.5225 45.7116L39.8608 47.3141C39.6982 47.2259 39.5111 47.1936 39.3283 47.222C39.1455 47.2505 38.9772 47.3383 38.8491 47.4717C38.721 47.6052 38.6403 47.777 38.6193 47.9608C38.5984 48.1446 38.6384 48.3302 38.7332 48.4891C38.828 48.648 38.9723 48.7713 39.144 48.8402C39.3157 48.909 39.5053 48.9196 39.6835 48.8703C39.8618 48.8209 40.019 48.7144 40.1309 48.5671C40.2427 48.4198 40.3032 48.2398 40.3028 48.0548C40.3032 47.9805 40.2932 47.9066 40.2732 47.835L45.5003 44.6844L48.0238 45.9906L39.1621 51.1067L36.446 49.5338L34.0312 51.0005L30.3695 49.0647L41.4411 42.6178L42.7892 43.3585C42.7814 43.4025 42.7773 43.4471 42.7769 43.4918C42.7769 43.659 42.8265 43.8223 42.9194 43.9612C43.0123 44.1002 43.1443 44.2084 43.2987 44.2722C43.4532 44.3361 43.6231 44.3527 43.787 44.3199C43.9508 44.2871 44.1013 44.2064 44.2193 44.0881C44.3373 43.9697 44.4175 43.819 44.4498 43.6551C44.4821 43.4911 44.4651 43.3212 44.4008 43.167C44.3365 43.0127 44.2279 42.881 44.0887 42.7885C43.9495 42.696 43.786 42.6469 43.6188 42.6474C43.4464 42.6474 43.2782 42.7009 43.1374 42.8005L41.4312 41.8745L29.0139 49.1017L34.0559 51.7758L36.4559 50.319L38.5151 51.5067L34.7201 53.6968L29.1867 50.7338V53.9437L31.9151 55.3239L27.7522 57.7017L23.5991 55.3042L26.3151 53.9239V50.7141L20.7818 53.677L16.9867 51.4869L19.046 50.2992L21.4485 51.756L26.4904 49.082L14.0732 41.8548L12.3645 42.7807C12.2237 42.6812 12.0555 42.6277 11.883 42.6276C11.7169 42.6301 11.5552 42.6815 11.4181 42.7754C11.281 42.8693 11.1747 43.0016 11.1124 43.1557C11.0502 43.3098 11.0348 43.4788 11.0682 43.6416C11.1015 43.8043 11.1822 43.9537 11.3 44.0708C11.4179 44.188 11.5677 44.2678 11.7306 44.3002C11.8936 44.3326 12.0625 44.3162 12.2162 44.2531C12.3699 44.19 12.5016 44.0829 12.5948 43.9453C12.6879 43.8077 12.7384 43.6457 12.7398 43.4795C12.7435 43.4351 12.7435 43.3905 12.7398 43.3462L14.0855 42.6054L25.1596 49.0523L21.4806 51.0079L19.0682 49.5412L16.3522 51.1165L7.48057 45.998L10.004 44.6918L15.2312 47.8424C15.2112 47.914 15.2012 47.9879 15.2016 48.0622C15.2015 48.2465 15.262 48.4258 15.3736 48.5724C15.4853 48.7191 15.642 48.825 15.8197 48.874C15.9974 48.923 16.1863 48.9124 16.3573 48.8437C16.5284 48.775 16.6721 48.6521 16.7666 48.4938C16.861 48.3355 16.9009 48.1506 16.8801 47.9674C16.8594 47.7843 16.779 47.613 16.6515 47.4799C16.524 47.3468 16.3564 47.2592 16.1743 47.2306C15.9922 47.202 15.8057 47.2339 15.6435 47.3215L12.9818 45.719L14.446 44.9783L19.5423 47.9931C19.5263 48.0551 19.5188 48.1191 19.5201 48.1832C19.5206 48.3496 19.5704 48.5122 19.6632 48.6503C19.756 48.7884 19.8877 48.896 20.0415 48.9593C20.1954 49.0227 20.3647 49.039 20.5278 49.0062C20.691 48.9734 20.8408 48.8931 20.9583 48.7752C21.0758 48.6574 21.1557 48.5073 21.188 48.3441C21.2203 48.1808 21.2035 48.0116 21.1397 47.8579C21.0759 47.7042 20.968 47.5729 20.8296 47.4805C20.6912 47.3881 20.5285 47.3387 20.3621 47.3387C20.21 47.339 20.0608 47.3799 19.93 47.4573L14.4707 44.2202L12.3151 45.3042L10.0287 43.9289L6.8065 45.598L5.18427 44.6647V18.5906L27.7645 5.55604L50.3448 18.5906L50.3398 44.6647ZM35.3349 48.1857C35.3349 48.2223 35.324 48.2581 35.3037 48.2885C35.2833 48.319 35.2544 48.3427 35.2206 48.3568C35.1867 48.3708 35.1495 48.3744 35.1136 48.3673C35.0777 48.3601 35.0447 48.3425 35.0188 48.3166C34.9929 48.2907 34.9752 48.2577 34.9681 48.2218C34.9609 48.1859 34.9646 48.1486 34.9786 48.1148C34.9926 48.081 35.0164 48.052 35.0468 48.0317C35.0773 48.0113 35.1131 48.0005 35.1497 48.0005C35.1975 48.0024 35.2427 48.0227 35.2759 48.0573C35.309 48.0918 35.3275 48.1378 35.3275 48.1857H35.3349ZM39.6509 48.0622C39.6509 48.0988 39.6401 48.1346 39.6197 48.1651C39.5994 48.1955 39.5705 48.2193 39.5366 48.2333C39.5028 48.2473 39.4655 48.251 39.4296 48.2438C39.3937 48.2367 39.3607 48.2191 39.3348 48.1931C39.3089 48.1673 39.2913 48.1343 39.2841 48.0983C39.277 48.0624 39.2807 48.0252 39.2947 47.9913C39.3087 47.9575 39.3324 47.9286 39.3629 47.9082C39.3933 47.8879 39.4291 47.877 39.4658 47.877C39.5136 47.8789 39.5588 47.8993 39.5919 47.9338C39.6251 47.9683 39.6436 48.0143 39.6435 48.0622H39.6509ZM43.4238 43.4795C43.4238 43.4429 43.4346 43.4071 43.455 43.3766C43.4753 43.3461 43.5043 43.3224 43.5381 43.3084C43.5719 43.2944 43.6092 43.2907 43.6451 43.2979C43.681 43.305 43.714 43.3226 43.7399 43.3485C43.7658 43.3744 43.7834 43.4074 43.7906 43.4434C43.7977 43.4793 43.7941 43.5165 43.7801 43.5504C43.766 43.5842 43.7423 43.6131 43.7118 43.6335C43.6814 43.6538 43.6456 43.6647 43.609 43.6647C43.5601 43.664 43.5133 43.6443 43.4787 43.6097C43.4441 43.5751 43.4244 43.5284 43.4238 43.4795ZM12.0806 43.4795C12.0806 43.5161 12.0697 43.5519 12.0494 43.5824C12.029 43.6128 12.0001 43.6366 11.9663 43.6506C11.9324 43.6646 11.8952 43.6683 11.8593 43.6611C11.8233 43.654 11.7903 43.6363 11.7644 43.6104C11.7385 43.5845 11.7209 43.5515 11.7138 43.5156C11.7066 43.4797 11.7103 43.4425 11.7243 43.4086C11.7383 43.3748 11.762 43.3459 11.7925 43.3255C11.823 43.3052 11.8588 43.2943 11.8954 43.2943C11.9443 43.2949 11.991 43.3147 12.0256 43.3493C12.0602 43.3838 12.0799 43.4306 12.0806 43.4795ZM15.8608 48.0622C15.8608 48.0256 15.8717 47.9898 15.892 47.9593C15.9124 47.9289 15.9413 47.9051 15.9751 47.8911C16.009 47.8771 16.0462 47.8734 16.0821 47.8806C16.1181 47.8877 16.151 47.9054 16.1769 47.9313C16.2028 47.9572 16.2205 47.9902 16.2276 48.0261C16.2348 48.062 16.2311 48.0992 16.2171 48.1331C16.2031 48.1669 16.1793 48.1958 16.1489 48.2162C16.1184 48.2365 16.0826 48.2474 16.046 48.2474C15.9971 48.2467 15.9504 48.227 15.9158 48.1924C15.8812 48.1579 15.8615 48.1111 15.8608 48.0622ZM20.1769 48.1857C20.1764 48.1489 20.1868 48.1129 20.2069 48.0821C20.2269 48.0513 20.2557 48.0272 20.2895 48.0128C20.3233 47.9984 20.3606 47.9944 20.3966 48.0013C20.4327 48.0081 20.466 48.0256 20.4921 48.0514C20.5182 48.0772 20.5361 48.1102 20.5435 48.1461C20.5508 48.1821 20.5473 48.2195 20.5334 48.2535C20.5194 48.2875 20.4957 48.3165 20.4652 48.337C20.4347 48.3574 20.3988 48.3684 20.3621 48.3684C20.3134 48.3684 20.2666 48.3492 20.232 48.315C20.1973 48.2808 20.1775 48.2343 20.1769 48.1857Z" fill="#87FB66"/>
<path d="M9.77064 38.7511C9.63762 38.6093 9.45977 38.5177 9.26709 38.4919C9.07442 38.466 8.87872 38.5075 8.71304 38.6092C8.54736 38.7109 8.42185 38.8666 8.35768 39.0501C8.29351 39.2336 8.29463 39.4336 8.36083 39.6164C8.42703 39.7992 8.55427 39.9536 8.72107 40.0534C8.88787 40.1533 9.08402 40.1925 9.27639 40.1645C9.46877 40.1365 9.64559 40.043 9.77702 39.8997C9.90845 39.7565 9.98643 39.5723 9.9978 39.3782L11.5682 38.5412V40.7634L7.46199 43.1461V37.6844L12.0052 35.2795V22.2819L6.80273 19.2646V34.6449L9.81261 33.2992V26.1387C9.99413 26.0697 10.1462 25.94 10.2431 25.7717C10.3399 25.6034 10.3757 25.4068 10.3442 25.2152C10.3127 25.0235 10.2159 24.8487 10.0703 24.7202C9.9246 24.5918 9.73903 24.5176 9.54497 24.5103C9.35091 24.5031 9.16029 24.5631 9.00541 24.6802C8.85052 24.7974 8.7409 24.9645 8.69511 25.1532C8.64931 25.3419 8.67016 25.5407 8.75412 25.7158C8.83808 25.8909 8.98 26.0316 9.15582 26.114V32.8622L7.46199 33.6177V20.4079L11.3583 22.6597V34.8819L6.81508 37.2893V44.277L12.2472 41.1288V37.4449L9.77064 38.7511ZM9.15829 39.5165C9.12166 39.5165 9.08586 39.5056 9.05541 39.4853C9.02495 39.4649 9.00122 39.436 8.9872 39.4022C8.97319 39.3683 8.96952 39.3311 8.97666 39.2952C8.98381 39.2593 9.00145 39.2263 9.02735 39.2004C9.05324 39.1745 9.08624 39.1568 9.12216 39.1497C9.15808 39.1425 9.19532 39.1462 9.22916 39.1602C9.263 39.1742 9.29192 39.198 9.31227 39.2284C9.33261 39.2589 9.34347 39.2947 9.34347 39.3313C9.34481 39.3566 9.34102 39.3818 9.33234 39.4056C9.32367 39.4293 9.31028 39.4511 9.29298 39.4695C9.27568 39.488 9.25484 39.5028 9.23169 39.5129C9.20855 39.5231 9.18358 39.5286 9.15829 39.5288V39.5165ZM9.51384 25.1708C9.55047 25.1708 9.58627 25.1817 9.61673 25.202C9.64718 25.2224 9.67092 25.2513 9.68494 25.2851C9.69895 25.319 9.70262 25.3562 9.69547 25.3921C9.68833 25.4281 9.67069 25.4611 9.64479 25.487C9.61889 25.5129 9.58589 25.5305 9.54997 25.5376C9.51405 25.5448 9.47681 25.5411 9.44298 25.5271C9.40914 25.5131 9.38022 25.4893 9.35987 25.4589C9.33952 25.4284 9.32866 25.3926 9.32866 25.356C9.3293 25.3071 9.34901 25.2604 9.38361 25.2258C9.4182 25.1912 9.46493 25.1715 9.51384 25.1708Z" fill="#87FB66"/>
<path d="M22.5559 12.598L22.4004 12.6943V12.6893L22.5559 12.598Z" fill="#87FB66"/>
<path d="M15.4882 22.8967L15.3721 22.9634L15.4388 23.0029L15.5055 22.8869L15.4882 22.8967ZM7.71289 18.5683L10.4117 20.2177L13.1598 18.6622L14.587 19.5041L11.9549 21.0325L14.5968 22.5264L15.0907 22.2325L15.2462 22.1436L13.2709 21.0251L15.8783 19.5091L13.1623 17.9017L10.4191 19.4548L8.98696 18.5807L26.6363 8.21031V10.1634L22.5499 12.598L22.3944 12.6943L16.4561 16.3782C16.3033 16.2667 16.1174 16.2099 15.9284 16.217C15.7394 16.224 15.5583 16.2945 15.4142 16.4171C15.2702 16.5396 15.1716 16.7071 15.1343 16.8926C15.0971 17.078 15.1233 17.2706 15.2089 17.4393C15.2945 17.6079 15.4343 17.7429 15.606 17.8224C15.7776 17.9019 15.971 17.9213 16.155 17.8774C16.339 17.8336 16.5028 17.7291 16.6202 17.5807C16.7375 17.4324 16.8015 17.2488 16.8018 17.0597C16.8043 17.0211 16.8043 16.9823 16.8018 16.9436L22.4043 13.4671V14.8869L19.5573 16.7041C19.4192 16.6095 19.2557 16.5587 19.0882 16.5585C18.9212 16.5585 18.7579 16.608 18.6191 16.7008C18.4802 16.7936 18.3719 16.9254 18.308 17.0798C18.2441 17.2341 18.2274 17.4038 18.26 17.5676C18.2926 17.7315 18.373 17.8819 18.4911 18C18.6092 18.1181 18.7597 18.1985 18.9235 18.2311C19.0873 18.2637 19.2571 18.247 19.4114 18.1831C19.5657 18.1192 19.6975 18.0109 19.7903 17.872C19.8831 17.7332 19.9326 17.5699 19.9326 17.4029C19.9328 17.3531 19.9279 17.3035 19.9178 17.2548L23.0635 15.2473V13.0646L27.308 10.5387V7.05969L7.71289 18.5683ZM15.9623 17.2449C15.9256 17.2449 15.8898 17.234 15.8594 17.2137C15.8289 17.1933 15.8052 17.1644 15.7912 17.1306C15.7772 17.0967 15.7735 17.0595 15.7806 17.0236C15.7878 16.9876 15.8054 16.9546 15.8313 16.9287C15.8572 16.9028 15.8902 16.8852 15.9261 16.8781C15.9621 16.8709 15.9993 16.8746 16.0331 16.8886C16.067 16.9026 16.0959 16.9264 16.1163 16.9568C16.1366 16.9873 16.1475 17.0231 16.1475 17.0597C16.1475 17.1088 16.1279 17.1559 16.0932 17.1906C16.0585 17.2254 16.0114 17.2449 15.9623 17.2449ZM19.0808 17.5856C19.0441 17.5856 19.0082 17.5747 18.9777 17.5542C18.9472 17.5338 18.9234 17.5047 18.9095 17.4707C18.8955 17.4367 18.892 17.3994 18.8994 17.3634C18.9067 17.3274 18.9246 17.2944 18.9507 17.2686C18.9769 17.2428 19.0101 17.2254 19.0462 17.2185C19.0823 17.2116 19.1196 17.2157 19.1534 17.2301C19.1872 17.2445 19.2159 17.2686 19.236 17.2994C19.256 17.3301 19.2665 17.3662 19.266 17.4029C19.2653 17.4516 19.2455 17.4981 19.2109 17.5323C19.1762 17.5665 19.1295 17.5856 19.0808 17.5856Z" fill="#87FB66"/>
<path d="M30.3072 32.4968C30.1412 32.4964 29.9788 32.545 29.8403 32.6366C29.7019 32.7281 29.5936 32.8586 29.5291 33.0115C29.4645 33.1645 29.4467 33.3331 29.4777 33.4962C29.5087 33.6592 29.5873 33.8095 29.7034 33.9281C29.8196 34.0466 29.9682 34.1282 30.1306 34.1625C30.2931 34.1969 30.462 34.1825 30.6162 34.1211C30.7704 34.0597 30.9031 33.9541 30.9975 33.8175C31.0919 33.681 31.1438 33.5196 31.1467 33.3536L33.0282 32.2647V35.1536L27.7566 38.1018L21.8504 34.6869V32.1561L28.0232 35.6474V31.5832L21.9763 28.0647L27.7541 24.8153L33.4331 28.0499L30.7343 29.5116L28.2504 28.045C28.2542 28.0047 28.2542 27.9642 28.2504 27.924C28.2503 27.7351 28.1868 27.5516 28.0699 27.4032C27.9529 27.2548 27.7895 27.15 27.6059 27.1057C27.4222 27.0614 27.229 27.0801 27.0573 27.1589C26.8856 27.2377 26.7453 27.372 26.6592 27.5401C26.573 27.7082 26.5458 27.9004 26.5821 28.0859C26.6184 28.2713 26.716 28.4391 26.8591 28.5623C27.0023 28.6856 27.1828 28.7571 27.3716 28.7654C27.5603 28.7736 27.7464 28.7182 27.8998 28.6079L30.7121 30.2697L34.7763 28.0672L27.759 24.0598L20.6504 28.0548L27.3689 31.9635V34.5166L21.1961 31.0277V35.0672L27.7541 38.8598L33.68 35.5388V31.1339L30.8924 32.7487C30.7377 32.5915 30.5276 32.5011 30.3072 32.4968ZM30.3072 33.524C30.2706 33.524 30.2347 33.5131 30.2043 33.4928C30.1738 33.4724 30.1501 33.4435 30.1361 33.4097C30.1221 33.3758 30.1184 33.3386 30.1256 33.3027C30.1327 33.2667 30.1503 33.2337 30.1762 33.2078C30.2021 33.1819 30.2351 33.1643 30.2711 33.1572C30.307 33.15 30.3442 33.1537 30.378 33.1677C30.4119 33.1817 30.4408 33.2055 30.4612 33.2359C30.4815 33.2664 30.4924 33.3022 30.4924 33.3388C30.4924 33.3879 30.4729 33.435 30.4381 33.4697C30.4034 33.5045 30.3563 33.524 30.3072 33.524ZM27.4084 28.1092C27.3718 28.1092 27.336 28.0983 27.3055 28.078C27.2751 28.0576 27.2513 28.0287 27.2373 27.9948C27.2233 27.961 27.2196 27.9238 27.2268 27.8878C27.2339 27.8519 27.2516 27.8189 27.2775 27.793C27.3034 27.7671 27.3364 27.7495 27.3723 27.7424C27.4082 27.7352 27.4454 27.7389 27.4793 27.7529C27.5131 27.7669 27.542 27.7906 27.5624 27.8211C27.5827 27.8515 27.5936 27.8874 27.5936 27.924C27.593 27.9729 27.5732 28.0196 27.5387 28.0542C27.5041 28.0888 27.4573 28.1085 27.4084 28.1092Z" fill="#87FB66"/>
<path d="M27.1186 11.7487V15.2943L26.4618 15.6721V12.9215L24.5186 14.1092V16.7956L23.8594 17.1758V13.7388L27.1186 11.7487Z" fill="#87FB66"/>
<path d="M27.1183 16.1808V16.2025H27.082L27.1183 16.1808Z" fill="#87FB66"/>
<path d="M28.3389 16.203H28.334V16.2005L28.3389 16.203Z" fill="#87FB66"/>
<path d="M31.5957 13.7388V17.198L30.9365 16.8153V14.1092L28.9932 12.9215V15.6943L28.334 15.3141V11.7487L31.5957 13.7388Z" fill="#87FB66"/>
<path d="M48.7078 34.6449V19.2646L43.5053 22.2819V35.2795L48.0485 37.6844V43.1338L43.9522 40.7634V38.5412L45.5201 39.3782C45.5319 39.571 45.6098 39.7537 45.7406 39.8958C45.8714 40.0378 46.0471 40.1304 46.2382 40.1579C46.4293 40.1855 46.6241 40.1463 46.7897 40.0471C46.9553 39.9478 47.0816 39.7945 47.1474 39.6129C47.2132 39.4314 47.2143 39.2327 47.1507 39.0504C47.0871 38.8681 46.9626 38.7133 46.7982 38.6121C46.6337 38.5109 46.4394 38.4694 46.248 38.4948C46.0566 38.5201 45.8798 38.6106 45.7473 38.7511L43.293 37.4449V41.1288L48.7251 44.277V37.2893L44.1819 34.8819V22.6597L48.0658 20.4079V33.6276L46.3547 32.8622V26.119C46.531 26.0362 46.6733 25.8951 46.7575 25.7195C46.8416 25.5439 46.8625 25.3446 46.8166 25.1553C46.7707 24.9661 46.6607 24.7985 46.5054 24.6811C46.3501 24.5636 46.159 24.5034 45.9644 24.5107C45.7698 24.5179 45.5837 24.5923 45.4376 24.721C45.2915 24.8498 45.1944 25.0251 45.1628 25.2173C45.1311 25.4094 45.1669 25.6066 45.2639 25.7754C45.361 25.9443 45.5134 26.0744 45.6954 26.1437V33.3042L48.7078 34.6449ZM46.3522 39.1461C46.3889 39.1461 46.4247 39.157 46.4551 39.1773C46.4856 39.1977 46.5093 39.2266 46.5233 39.2604C46.5373 39.2943 46.541 39.3315 46.5339 39.3674C46.5267 39.4034 46.5091 39.4364 46.4832 39.4623C46.4573 39.4882 46.4243 39.5058 46.3884 39.5129C46.3524 39.5201 46.3152 39.5164 46.2814 39.5024C46.2475 39.4884 46.2186 39.4647 46.1983 39.4342C46.1779 39.4038 46.167 39.3679 46.167 39.3313C46.167 39.307 46.1718 39.2829 46.1811 39.2604C46.1905 39.238 46.2041 39.2176 46.2213 39.2004C46.2385 39.1832 46.2589 39.1695 46.2814 39.1602C46.3038 39.1509 46.3279 39.1461 46.3522 39.1461ZM45.9942 25.1708C46.0308 25.1708 46.0666 25.1817 46.0971 25.202C46.1275 25.2224 46.1513 25.2513 46.1653 25.2851C46.1793 25.319 46.183 25.3562 46.1758 25.3921C46.1687 25.4281 46.151 25.4611 46.1252 25.487C46.0993 25.5129 46.0663 25.5305 46.0303 25.5376C45.9944 25.5448 45.9572 25.5411 45.9233 25.5271C45.8895 25.5131 45.8606 25.4893 45.8402 25.4589C45.8199 25.4284 45.809 25.3926 45.809 25.356C45.8097 25.3071 45.8294 25.2604 45.864 25.2258C45.8986 25.1912 45.9453 25.1715 45.9942 25.1708Z" fill="#87FB66"/>
<path d="M40.042 22.9609L40.0667 23.0029L40.0889 22.9881L40.042 22.9609ZM45.0963 20.2177L47.7951 18.5683L28.1309 7.05969V10.5412L32.4494 13.0646V15.2473L35.5975 17.2548C35.5875 17.3035 35.5825 17.3531 35.5827 17.4029C35.5827 17.57 35.6323 17.7334 35.7252 17.8723C35.8181 18.0112 35.9501 18.1195 36.1046 18.1833C36.259 18.2471 36.4289 18.2637 36.5928 18.2309C36.7567 18.1982 36.9071 18.1175 37.0251 17.9991C37.1431 17.8808 37.2234 17.7301 37.2557 17.5661C37.288 17.4022 37.2709 17.2323 37.2066 17.078C37.1423 16.9238 37.0337 16.7921 36.8945 16.6996C36.7553 16.6071 36.5918 16.558 36.4247 16.5585C36.2577 16.5593 36.0946 16.6091 35.9556 16.7017L33.1086 14.8869V13.4671L38.7086 16.9436C38.7061 16.9823 38.7061 17.0211 38.7086 17.0597C38.7085 17.2488 38.7721 17.4324 38.889 17.581C39.006 17.7295 39.1696 17.8344 39.3534 17.8787C39.5372 17.923 39.7306 17.9041 39.9024 17.8251C40.0742 17.7461 40.2144 17.6116 40.3004 17.4432C40.3864 17.2748 40.4133 17.0824 40.3766 16.8969C40.3399 16.7114 40.2419 16.5436 40.0983 16.4206C39.9547 16.2976 39.7738 16.2266 39.5849 16.2189C39.396 16.2112 39.2099 16.2673 39.0568 16.3782L33.1309 12.6943L32.9753 12.598L28.8123 10.1609V8.20784L46.5358 18.5782L45.1062 19.4523L42.3605 17.8992L39.6444 19.5066L42.2222 21.0251L40.1975 22.1659L40.3086 22.2325L40.8617 22.551L43.5457 21.0325L40.9136 19.5041L42.3407 18.6622L45.0963 20.2177ZM36.4247 17.2177C36.4613 17.2177 36.4971 17.2286 36.5276 17.2489C36.558 17.2693 36.5818 17.2982 36.5958 17.332C36.6098 17.3659 36.6135 17.4031 36.6063 17.439C36.5992 17.475 36.5815 17.5079 36.5556 17.5338C36.5297 17.5597 36.4967 17.5774 36.4608 17.5845C36.4249 17.5917 36.3877 17.588 36.3538 17.574C36.32 17.56 36.2911 17.5362 36.2707 17.5058C36.2504 17.4753 36.2395 17.4395 36.2395 17.4029C36.2395 17.3538 36.259 17.3067 36.2937 17.272C36.3285 17.2372 36.3756 17.2177 36.4247 17.2177ZM39.5432 16.8745C39.5798 16.8745 39.6156 16.8854 39.6461 16.9057C39.6765 16.9261 39.7003 16.955 39.7143 16.9888C39.7283 17.0227 39.732 17.0599 39.7248 17.0958C39.7177 17.1317 39.7001 17.1647 39.6742 17.1906C39.6483 17.2165 39.6153 17.2342 39.5793 17.2413C39.5434 17.2485 39.5062 17.2448 39.4723 17.2308C39.4385 17.2168 39.4096 17.193 39.3892 17.1626C39.3689 17.1321 39.358 17.0963 39.358 17.0597C39.3587 17.0108 39.3784 16.964 39.413 16.9295C39.4476 16.8949 39.4943 16.8751 39.5432 16.8745Z" fill="#87FB66"/>
<path d="M33.1087 12.6869V12.6943L32.9531 12.598L33.1087 12.6869Z" fill="#87FB66"/>
<path d="M41.5031 25.5388C41.3087 25.5382 41.12 25.6049 40.9692 25.7277C40.8184 25.8504 40.7147 26.0215 40.6757 26.212C40.6368 26.4025 40.6649 26.6006 40.7554 26.7727C40.8459 26.9448 40.9932 27.0803 41.1723 27.1561L41.1056 36.9363L37.2414 34.8993V29.045L38.8784 28.1092V32.0474C38.6989 32.1232 38.5511 32.2588 38.4601 32.4311C38.3691 32.6034 38.3405 32.8019 38.3792 32.9929C38.4178 33.1839 38.5214 33.3557 38.6722 33.4791C38.8231 33.6025 39.012 33.6699 39.2068 33.6699C39.4017 33.6699 39.5906 33.6025 39.7414 33.4791C39.8923 33.3557 39.9958 33.1839 40.0345 32.9929C40.0732 32.8019 40.0446 32.6034 39.9536 32.4311C39.8626 32.2588 39.7148 32.1232 39.5352 32.0474V26.9734L36.5723 28.6622V35.2943L41.7575 38.0252L41.8315 27.161C42.0119 27.0862 42.1607 26.9511 42.2524 26.7787C42.3442 26.6062 42.3731 26.4073 42.3343 26.2159C42.2955 26.0245 42.1914 25.8526 42.0397 25.7295C41.8881 25.6064 41.6984 25.5399 41.5031 25.5413V25.5388ZM39.2068 32.64C39.2435 32.64 39.2793 32.6509 39.3097 32.6712C39.3402 32.6916 39.3639 32.7205 39.3779 32.7543C39.3919 32.7882 39.3956 32.8254 39.3885 32.8613C39.3813 32.8973 39.3637 32.9303 39.3378 32.9562C39.3119 32.9821 39.2789 32.9997 39.243 33.0068C39.207 33.014 39.1698 33.0103 39.136 32.9963C39.1021 32.9823 39.0732 32.9585 39.0529 32.9281C39.0325 32.8976 39.0216 32.8618 39.0216 32.8252C39.0223 32.7763 39.042 32.7296 39.0766 32.695C39.1112 32.6604 39.1579 32.6407 39.2068 32.64ZM41.5031 26.566C41.4665 26.566 41.4307 26.5551 41.4002 26.5347C41.3698 26.5144 41.3461 26.4855 41.332 26.4516C41.318 26.4178 41.3144 26.3806 41.3215 26.3446C41.3286 26.3087 41.3463 26.2757 41.3722 26.2498C41.3981 26.2239 41.4311 26.2063 41.467 26.1991C41.5029 26.192 41.5402 26.1957 41.574 26.2097C41.6078 26.2237 41.6368 26.2474 41.6571 26.2779C41.6775 26.3083 41.6883 26.3441 41.6883 26.3808C41.6886 26.4052 41.6841 26.4294 41.6749 26.452C41.6657 26.4746 41.6521 26.4952 41.6348 26.5125C41.6176 26.5297 41.597 26.5433 41.5744 26.5525C41.5518 26.5617 41.5275 26.5663 41.5031 26.566Z" fill="#87FB66"/>
<path d="M27.7534 5.55609L5.18555 18.5907V44.6647L6.82012 45.6079L10.0423 43.9388L12.3288 45.3141L14.4843 44.2302L19.9436 47.4598C20.0716 47.3832 20.2177 47.3421 20.3668 47.3405C20.516 47.3389 20.6629 47.377 20.7925 47.4509C20.9221 47.5247 21.0298 47.6317 21.1045 47.7608C21.1792 47.8899 21.2182 48.0365 21.2176 48.1857C21.2176 48.409 21.1289 48.6232 20.971 48.7811C20.8131 48.939 20.599 49.0277 20.3757 49.0277C20.1524 49.0277 19.9382 48.939 19.7803 48.7811C19.6224 48.6232 19.5337 48.409 19.5337 48.1857C19.5324 48.1216 19.5399 48.0577 19.5559 47.9956L14.4596 44.9808L12.9954 45.7215L15.6572 47.324C15.7809 47.2577 15.9192 47.2229 16.0596 47.2227C16.2266 47.2227 16.3899 47.2723 16.5288 47.3651C16.6676 47.4579 16.7759 47.5897 16.8398 47.744C16.9037 47.8983 16.9204 48.0681 16.8878 48.2319C16.8553 48.3957 16.7748 48.5462 16.6567 48.6643C16.5386 48.7824 16.3882 48.8628 16.2244 48.8954C16.0606 48.928 15.8908 48.9113 15.7365 48.8474C15.5822 48.7835 15.4503 48.6752 15.3575 48.5363C15.2647 48.3975 15.2152 48.2342 15.2152 48.0672C15.2148 47.9929 15.2248 47.919 15.2448 47.8474L10.0176 44.6968L7.48184 45.9981L16.3436 51.1166L19.0596 49.5413L21.472 51.0079L25.1386 49.0647L14.0744 42.6178L12.7288 43.3586C12.7324 43.4029 12.7324 43.4475 12.7288 43.4919C12.7288 43.6589 12.6792 43.8222 12.5864 43.961C12.4937 44.0999 12.3618 44.2081 12.2075 44.2721C12.0532 44.336 11.8834 44.3527 11.7196 44.3201C11.5558 44.2875 11.4053 44.2071 11.2872 44.089C11.1691 43.9709 11.0887 43.8204 11.0561 43.6566C11.0235 43.4928 11.0402 43.323 11.1041 43.1687C11.1681 43.0144 11.2763 42.8825 11.4152 42.7898C11.554 42.697 11.7173 42.6474 11.8843 42.6474C12.0568 42.6475 12.225 42.701 12.3658 42.8005L14.0744 41.8746L26.4917 49.1018L21.4497 51.7758L19.0473 50.3191L16.988 51.5067L20.7831 53.6968L26.3164 50.7339V53.9437L23.6004 55.324L27.7534 57.7215L31.9065 55.324L29.1781 53.9437V50.7339L34.7115 53.6968L38.5189 51.4944L36.4596 50.3067L34.0596 51.7635L29.0176 49.0894L41.4349 41.8623L43.1411 42.7882C43.2819 42.6886 43.4501 42.6352 43.6226 42.6351C43.7897 42.6346 43.9532 42.6837 44.0924 42.7762C44.2316 42.8687 44.3402 43.0004 44.4045 43.1547C44.4688 43.3089 44.4859 43.4788 44.4536 43.6428C44.4213 43.8067 44.341 43.9574 44.223 44.0758C44.105 44.1941 43.9546 44.2748 43.7907 44.3076C43.6268 44.3404 43.4569 44.3238 43.3025 44.2599C43.148 44.1961 43.016 44.0879 42.9231 43.9489C42.8302 43.81 42.7806 43.6467 42.7806 43.4795C42.7811 43.4348 42.7852 43.3902 42.793 43.3462L41.4448 42.6055L30.3707 49.0647L34.0349 51.0079L36.4497 49.5413L39.1658 51.1141L48.0251 45.9981L45.5016 44.6919L40.2744 47.8425C40.2945 47.914 40.3044 47.988 40.3041 48.0623C40.3041 48.2466 40.2436 48.4258 40.132 48.5725C40.0203 48.7191 39.8636 48.8251 39.6859 48.8741C39.5082 48.9231 39.3194 48.9124 39.1483 48.8437C38.9773 48.775 38.8335 48.6521 38.739 48.4938C38.6446 48.3355 38.6047 48.1506 38.6255 47.9675C38.6463 47.7843 38.7266 47.6131 38.8541 47.48C38.9816 47.3469 39.1493 47.2593 39.3314 47.2306C39.5134 47.202 39.6999 47.234 39.8621 47.3215L42.5238 45.7191L41.0596 44.9783L35.9658 47.9931C35.9806 48.0554 35.9881 48.1192 35.988 48.1832C35.9879 48.3696 35.9262 48.5507 35.8124 48.6983C35.6987 48.8459 35.5393 48.9518 35.3591 48.9993C35.1789 49.0469 34.988 49.0335 34.8162 48.9613C34.6444 48.889 34.5014 48.762 34.4093 48.5999C34.3173 48.4379 34.2814 48.2499 34.3073 48.0654C34.3333 47.8808 34.4195 47.71 34.5526 47.5796C34.6858 47.4492 34.8583 47.3665 35.0433 47.3444C35.2284 47.3222 35.4156 47.362 35.5757 47.4573L41.0349 44.2203L43.1905 45.3042L45.4794 43.9289L48.7016 45.5981L50.3337 44.6549V18.5907L27.7534 5.55609ZM12.2275 41.1289L6.79542 44.2771V37.2894L11.3386 34.882V22.6598L7.45468 20.4079V33.6277L9.14851 32.8721V26.1191C8.97269 26.0366 8.83077 25.8959 8.74681 25.7208C8.66285 25.5457 8.642 25.3469 8.6878 25.1582C8.73359 24.9695 8.84321 24.8024 8.9981 24.6852C9.15298 24.5681 9.3436 24.5081 9.53766 24.5154C9.73172 24.5227 9.91729 24.5968 10.0629 24.7253C10.2086 24.8537 10.3054 25.0286 10.3369 25.2202C10.3684 25.4118 10.3326 25.6084 10.2358 25.7768C10.1389 25.9451 9.98682 26.0747 9.8053 26.1437V33.3042L6.79542 34.6499V19.2647L11.9979 22.282V35.2795L7.45468 37.6845V43.1339L11.5683 40.7635V38.5413L9.99789 39.3783C9.98612 39.571 9.90826 39.7538 9.77746 39.8958C9.64665 40.0379 9.47089 40.1305 9.27979 40.158C9.08868 40.1856 8.89392 40.1464 8.72831 40.0471C8.5627 39.9479 8.43638 39.7945 8.37063 39.613C8.30487 39.4314 8.3037 39.2328 8.36732 39.0505C8.43094 38.8682 8.55545 38.7134 8.71988 38.6122C8.88431 38.511 9.0786 38.4695 9.27001 38.4948C9.46143 38.5202 9.63827 38.6107 9.77073 38.7511L12.2399 37.445L12.2275 41.1289ZM11.9559 21.0326L14.588 19.5042L13.1609 18.6623L10.4127 20.2178L7.71394 18.5684L27.3016 7.05979V10.5388L23.0572 13.0647V15.2474L19.9115 17.2549C19.9215 17.3036 19.9265 17.3532 19.9263 17.403C19.9263 17.57 19.8768 17.7333 19.784 17.8721C19.6912 18.011 19.5593 18.1193 19.405 18.1832C19.2507 18.2471 19.0809 18.2638 18.9171 18.2312C18.7533 18.1986 18.6028 18.1182 18.4847 18.0001C18.3666 17.882 18.2862 17.7316 18.2536 17.5677C18.221 17.4039 18.2378 17.2342 18.3017 17.0799C18.3656 16.9256 18.4738 16.7937 18.6127 16.7009C18.7516 16.6081 18.9148 16.5586 19.0818 16.5586C19.2493 16.5588 19.4128 16.6096 19.551 16.7042L22.3979 14.887V13.4672L16.7905 16.9437C16.793 16.9824 16.793 17.0212 16.7905 17.0598C16.7899 17.2483 16.7259 17.4311 16.6088 17.5788C16.4917 17.7265 16.3283 17.8305 16.145 17.874C15.9616 17.9176 15.7689 17.8981 15.5979 17.8189C15.4269 17.7396 15.2876 17.6051 15.2023 17.437C15.117 17.2689 15.0908 17.077 15.1279 16.8922C15.1649 16.7074 15.2631 16.5404 15.4065 16.4182C15.55 16.296 15.7304 16.2256 15.9187 16.2183C16.1071 16.2111 16.2924 16.2674 16.4448 16.3783L22.3831 12.6944L22.5386 12.603L26.6251 10.1684V8.21535L8.97567 18.5857L10.4078 19.4598L13.151 17.9067L15.867 19.5141L13.2596 21.0302L15.2349 22.1487L15.0794 22.2376L14.5855 22.5314L11.9559 21.0326ZM24.5189 14.1191V16.8055L23.8596 17.1857V13.7388L27.1189 11.7487V15.2944L26.4621 15.6746V12.9215L24.5189 14.1191ZM26.7411 16.4055L27.0744 16.2129L27.1115 16.1907L27.1979 16.1413V22.6178L19.8917 26.8351L14.2843 23.5981L15.3658 22.9734L15.4818 22.9067H15.4991L26.7411 16.4055ZM13.7139 39.4721V24.5265L19.3189 27.7635V36.2252L13.7139 39.4721ZM27.1979 47.8672L14.2843 40.4154L19.8917 37.1783L27.1979 41.3931V47.8672ZM27.7436 38.8746L21.1855 35.082V31.0277L27.3584 34.5166V31.9635L20.6399 28.0549L27.7485 24.0598L34.7658 28.0672L30.7016 30.2697L27.9016 28.6079C27.7485 28.72 27.5622 28.7772 27.3726 28.7704C27.183 28.7636 27.0013 28.6932 26.8566 28.5705C26.7119 28.4478 26.6128 28.28 26.5752 28.094C26.5375 27.9081 26.5636 27.7149 26.6492 27.5456C26.7348 27.3763 26.8748 27.2408 27.0468 27.1608C27.2189 27.0808 27.4128 27.0611 27.5974 27.1048C27.782 27.1485 27.9465 27.2531 28.0644 27.4017C28.1823 27.5503 28.2467 27.7343 28.2473 27.924C28.251 27.9642 28.251 28.0047 28.2473 28.045L30.7312 29.5116L33.43 28.0499L27.751 24.8153L21.9757 28.0647L28.0275 31.5833V35.6475L21.8547 32.1561V34.687L27.7609 38.1018L33.0325 35.1536V32.2647L31.146 33.3561C31.1404 33.5479 31.0689 33.7319 30.9436 33.8771C30.8182 34.0223 30.6466 34.1199 30.4577 34.1535C30.2688 34.187 30.0741 34.1544 29.9064 34.0612C29.7387 33.968 29.6082 33.8198 29.537 33.6417C29.4657 33.4636 29.458 33.2663 29.5151 33.0831C29.5723 32.9 29.6908 32.7421 29.8507 32.6361C30.0107 32.5301 30.2022 32.4825 30.3932 32.5012C30.5841 32.5199 30.7628 32.6038 30.8991 32.7388L33.6843 31.1339V35.5512L27.7436 38.8746ZM28.9781 12.9487V15.7215L28.3189 15.3413V11.7487L31.6053 13.7388V17.1956L30.9362 16.8129V14.0968L28.9781 12.9487ZM28.3238 16.2302L28.6028 16.3931L31.2053 17.8944L39.9164 22.924L40.0275 22.9882L40.0744 23.0153L41.6843 23.9437L36.0769 27.1833L28.2868 22.6845V16.1808L28.3189 16.2005L28.3238 16.2302ZM28.2868 47.8351V41.3289L36.0769 36.8326L41.6843 40.0721L28.2868 47.8351ZM41.8176 27.1907L41.7436 38.0549L36.5584 35.324V28.6647L39.5214 26.9758V32.0474C39.7009 32.1232 39.8487 32.2588 39.9397 32.4311C40.0307 32.6034 40.0593 32.8019 40.0206 32.9929C39.982 33.184 39.8784 33.3557 39.7276 33.4791C39.5767 33.6025 39.3878 33.6699 39.193 33.6699C38.9981 33.6699 38.8092 33.6025 38.6583 33.4791C38.5075 33.3557 38.404 33.184 38.3653 32.9929C38.3266 32.8019 38.3552 32.6034 38.4462 32.4311C38.5372 32.2588 38.685 32.1232 38.8646 32.0474V28.1092L37.2275 29.045V34.8993L41.0917 36.9363L41.1584 27.1561C40.9798 27.0801 40.8329 26.9447 40.7426 26.7729C40.6524 26.6011 40.6242 26.4033 40.663 26.2131C40.7018 26.0229 40.8051 25.852 40.9554 25.7292C41.1058 25.6064 41.2939 25.5393 41.488 25.5393C41.6821 25.5393 41.8703 25.6064 42.0206 25.7292C42.1709 25.852 42.2742 26.0229 42.313 26.2131C42.3518 26.4033 42.3237 26.6011 42.2334 26.7729C42.1431 26.9447 41.9963 27.0801 41.8176 27.1561V27.1907ZM40.8522 22.5832L40.3139 22.245L40.2028 22.1783L42.2275 21.0376L39.6176 19.5215L42.3337 17.9141L45.0794 19.4672L46.509 18.5931L28.7855 8.22275V10.1758L32.9485 12.6129L33.1041 12.7018L39.03 16.3857C39.1831 16.2748 39.3692 16.2187 39.5581 16.2264C39.747 16.2341 39.9279 16.3052 40.0715 16.4281C40.2151 16.5511 40.3131 16.7189 40.3498 16.9044C40.3865 17.0899 40.3596 17.2823 40.2736 17.4507C40.1876 17.6191 40.0474 17.7536 39.8756 17.8326C39.7038 17.9116 39.5104 17.9305 39.3266 17.8862C39.1428 17.8419 38.9792 17.7371 38.8622 17.5885C38.7453 17.4399 38.6817 17.2563 38.6818 17.0672C38.6793 17.0286 38.6793 16.9898 38.6818 16.9512L33.0818 13.4746V14.8944L35.9288 16.7092C36.0678 16.6166 36.2309 16.5668 36.3979 16.566C36.565 16.5655 36.7285 16.6146 36.8677 16.7071C37.0069 16.7996 37.1155 16.9313 37.1798 17.0855C37.2441 17.2398 37.2612 17.4097 37.2289 17.5736C37.1966 17.7376 37.1163 17.8883 36.9984 18.0066C36.8804 18.125 36.7299 18.2057 36.566 18.2384C36.4021 18.2712 36.2322 18.2547 36.0778 18.1908C35.9233 18.127 35.7913 18.0187 35.6984 17.8798C35.6055 17.7409 35.5559 17.5775 35.5559 17.4104C35.5557 17.3607 35.5607 17.311 35.5707 17.2623L32.4226 15.2549V13.0721L28.1312 10.5413V7.05979L47.7954 18.5684L45.0967 20.2178L42.346 18.6623L40.9189 19.5042L43.551 21.0326L40.8522 22.5832ZM48.6917 34.682L45.6794 33.3363V26.1758C45.4988 26.1066 45.3477 25.977 45.2516 25.8092C45.1555 25.6413 45.1203 25.4454 45.1519 25.2546C45.1836 25.0638 45.2802 24.8898 45.4254 24.7619C45.5705 24.6341 45.7554 24.5604 45.9487 24.5531C46.142 24.5459 46.3318 24.6056 46.4862 24.7222C46.6405 24.8388 46.7498 25.0051 46.7957 25.193C46.8415 25.3809 46.8211 25.5789 46.7378 25.7535C46.6545 25.9281 46.5135 26.0685 46.3386 26.1512V32.8623L48.0325 33.6178V20.4079L44.1485 22.6598V34.882L48.6917 37.2894V44.2771L43.2596 41.1289V37.445L45.7139 38.7511C45.847 38.6094 46.0248 38.5178 46.2175 38.492C46.4102 38.4661 46.6059 38.5075 46.7715 38.6092C46.9372 38.7109 47.0627 38.8667 47.1269 39.0502C47.1911 39.2337 47.19 39.4337 47.1238 39.6165C47.0576 39.7993 46.9303 39.9536 46.7635 40.0535C46.5967 40.1533 46.4006 40.1926 46.2082 40.1646C46.0158 40.1366 45.839 40.0431 45.7076 39.8998C45.5761 39.7566 45.4982 39.5724 45.4868 39.3783L43.951 38.5413V40.7635L48.0572 43.1462V37.6845L43.5139 35.2795V22.282L48.7164 19.2647L48.6917 34.682Z" fill="#101823"/>
<path d="M27.2046 16.1314V22.6079L19.8984 26.8252L14.291 23.5882L15.3725 22.9635L15.4885 22.8968L15.5058 22.8869L26.7478 16.3956L27.0811 16.203L27.1182 16.1808L27.2046 16.1314Z" fill="url(#paint0_linear_66_2217)"/>
<path d="M41.6983 23.9166L36.0909 27.1536L28.3008 22.6573V16.1808L28.3329 16.2005L28.3378 16.203L28.6168 16.3659L31.2193 17.8672L39.9304 22.8968L40.0415 22.961L40.0884 22.9882L41.6983 23.9166Z" fill="url(#paint1_linear_66_2217)"/>
<path d="M19.3281 36.2252L13.7207 39.4622V24.5264L19.3256 27.7634L19.3281 36.2252Z" fill="url(#paint2_linear_66_2217)"/>
<path d="M27.2046 41.3807V47.8524L14.291 40.4005L19.8984 37.1635L27.2046 41.3807Z" fill="url(#paint3_linear_66_2217)"/>
<path d="M41.6983 40.0721L28.3008 47.8029V41.3289L36.0909 36.8326L41.6983 40.0721Z" fill="url(#paint4_linear_66_2217)"/>
<path d="M194.074 36.0103C194.896 35.513 195.612 34.8576 196.18 34.0819C197.345 32.4303 197.97 30.4587 197.97 28.4375C197.97 26.4163 197.345 24.4447 196.18 22.793C195.511 21.8678 194.628 21.1188 193.606 20.6104C192.584 20.1021 191.454 19.8495 190.313 19.8745H145.029V26.4819H140.187V19.8745H130.641V20.9387C129.498 20.2283 128.175 19.8591 126.829 19.8745H101.666V26.4819H94.1056V19.8745H72.2957C70.1104 19.8514 68.0022 20.6814 66.4192 22.1881C65.6133 22.9433 64.974 23.8586 64.5425 24.8752C64.1109 25.8919 63.8965 26.9875 63.913 28.0918V34.4177C63.8969 35.522 64.1116 36.6175 64.5431 37.634C64.9747 38.6506 65.6136 39.566 66.4192 40.3214C68.0057 41.8302 70.1188 42.6596 72.3081 42.6326H88.3945V35.0177C89.539 35.6926 90.8462 36.0418 92.1747 36.0276H93.1377V42.6326H102.691V36.0276H103.587C104.915 36.0405 106.221 35.6932 107.367 35.0227V42.6326H116.911V37.0326H126.829C128.175 37.0479 129.498 36.6787 130.641 35.9684V42.635H140.187V36.0276H145.029V42.6326H180.365V35.0844L187.101 42.6326H200.029L194.074 36.0103ZM73.4463 29.4202H84.6735C84.8795 30.76 85.4281 32.0239 86.2661 33.0893H73.4463V29.4202Z" fill="#101823"/>
<path d="M85.4887 39.8746H72.1406C71.4052 39.891 70.6739 39.7617 69.9887 39.4943C69.3035 39.2269 68.6779 38.8267 68.148 38.3165C67.6129 37.8206 67.1896 37.2164 66.906 36.5442C66.6225 35.872 66.4853 35.1471 66.5036 34.4178V28.0918C66.4856 27.3622 66.6229 26.637 66.9064 25.9645C67.1899 25.2919 67.6131 24.6872 68.148 24.1906C68.6781 23.6817 69.3034 23.2823 69.9881 23.0154C70.6728 22.7485 71.4034 22.6192 72.1381 22.6351H85.4863V26.6598H72.1406C71.0657 26.6598 70.5291 27.1388 70.5307 28.0968V34.4128C70.5307 35.3709 71.0674 35.8499 72.1406 35.8499H85.4887V39.8746Z" fill="url(#paint5_linear_66_2217)"/>
<path d="M108.293 27.9684C108.331 29.3176 107.866 30.6326 106.987 31.6573C106.552 32.1736 106.007 32.5861 105.392 32.8647C104.776 33.1432 104.107 33.2807 103.432 33.2671H99.7747V39.8746H95.7501V33.2671H92.0291C91.3585 33.2832 90.6931 33.1466 90.0832 32.8677C89.4732 32.5888 88.9346 32.1749 88.5081 31.6573C87.6073 30.643 87.1255 29.3244 87.1599 27.9684V22.635H91.1846V27.9684C91.1846 28.8178 91.4645 29.2425 92.0241 29.2425H103.432C103.99 29.2425 104.271 28.8178 104.271 27.9684V22.635H108.293V27.9684Z" fill="url(#paint6_linear_66_2217)"/>
<path d="M131.57 28.4696C131.607 29.8931 131.158 31.2866 130.296 32.4203C129.891 33.0043 129.347 33.479 128.714 33.8021C128.081 34.1252 127.377 34.2866 126.666 34.2721H113.995V39.8746H109.973V22.6351H126.666C127.375 22.6209 128.077 22.7819 128.709 23.1036C129.34 23.4253 129.883 23.8979 130.289 24.4795C131.15 25.6288 131.601 27.0337 131.57 28.4696ZM127.545 28.4696C127.545 27.2631 127.255 26.6598 126.674 26.6598H113.995V30.2474H126.666C127.254 30.2474 127.545 29.6524 127.545 28.4696Z" fill="url(#paint7_linear_66_2217)"/>
<path d="M151.66 39.8746H147.635V33.2671H137.284V39.8746H133.26V22.635H137.284V29.2425H147.655V22.635H151.68L151.66 39.8746Z" fill="url(#paint8_linear_66_2217)"/>
<path d="M171.749 26.6597H157.361V29.2425H170.811V33.2671H157.361V35.8499H171.717V39.8746H153.334V22.635H171.746L171.749 26.6597Z" fill="url(#paint9_linear_66_2217)"/>
<path d="M193.683 39.8746H188.182L179.562 30.2153H189.932C190.672 30.2153 191.04 29.6227 191.039 28.4375C191.037 27.2523 190.668 26.6597 189.932 26.6597H177.449V39.8746H173.424V22.635H190.16C190.873 22.6099 191.581 22.762 192.221 23.0779C192.861 23.3938 193.413 23.8635 193.826 24.4449C194.634 25.6194 195.066 27.0111 195.066 28.4363C195.066 29.8614 194.634 31.2531 193.826 32.4276C193.414 33.0084 192.864 33.478 192.226 33.7942C191.588 34.1105 190.881 34.2637 190.17 34.24H188.629L193.683 39.8746Z" fill="url(#paint10_linear_66_2217)"/>
</g>
<defs>
<linearGradient id="paint0_linear_66_2217" x1="17.2169" y1="17.5462" x2="45.7503" y2="36.245" gradientUnits="userSpaceOnUse">
<stop stop-color="#AAF4BF"/>
<stop offset="0.27" stop-color="#AEFB8C"/>
<stop offset="0.62" stop-color="#4CE059"/>
<stop offset="1" stop-color="#1CB744"/>
</linearGradient>
<linearGradient id="paint1_linear_66_2217" x1="19.9279" y1="13.4104" x2="48.4613" y2="32.1067" gradientUnits="userSpaceOnUse">
<stop stop-color="#AAF4BF"/>
<stop offset="0.27" stop-color="#AEFB8C"/>
<stop offset="0.62" stop-color="#4CE059"/>
<stop offset="1" stop-color="#1CB744"/>
</linearGradient>
<linearGradient id="paint2_linear_66_2217" x1="9.64416" y1="29.1042" x2="38.175" y2="47.8005" gradientUnits="userSpaceOnUse">
<stop stop-color="#AAF4BF"/>
<stop offset="0.27" stop-color="#AEFB8C"/>
<stop offset="0.62" stop-color="#4CE059"/>
<stop offset="1" stop-color="#1CB744"/>
</linearGradient>
<linearGradient id="paint3_linear_66_2217" x1="7.57744" y1="32.2573" x2="36.1083" y2="50.956" gradientUnits="userSpaceOnUse">
<stop stop-color="#AAF4BF"/>
<stop offset="0.27" stop-color="#AEFB8C"/>
<stop offset="0.62" stop-color="#4CE059"/>
<stop offset="1" stop-color="#1CB744"/>
</linearGradient>
<linearGradient id="paint4_linear_66_2217" x1="10.4613" y1="27.8573" x2="38.9921" y2="46.5536" gradientUnits="userSpaceOnUse">
<stop stop-color="#AAF4BF"/>
<stop offset="0.27" stop-color="#AEFB8C"/>
<stop offset="0.62" stop-color="#4CE059"/>
<stop offset="1" stop-color="#1CB744"/>
</linearGradient>
<linearGradient id="paint5_linear_66_2217" x1="63.7381" y1="29.198" x2="201.148" y2="48.2252" gradientUnits="userSpaceOnUse">
<stop stop-color="#AAF4BF"/>
<stop offset="0.27" stop-color="#AEFB8C"/>
<stop offset="0.62" stop-color="#4CE059"/>
<stop offset="1" stop-color="#1CB744"/>
</linearGradient>
<linearGradient id="paint6_linear_66_2217" x1="64.1797" y1="26.0153" x2="201.59" y2="45.04" gradientUnits="userSpaceOnUse">
<stop stop-color="#AAF4BF"/>
<stop offset="0.27" stop-color="#AEFB8C"/>
<stop offset="0.62" stop-color="#4CE059"/>
<stop offset="1" stop-color="#1CB744"/>
</linearGradient>
<linearGradient id="paint7_linear_66_2217" x1="64.4887" y1="23.7758" x2="201.899" y2="42.803" gradientUnits="userSpaceOnUse">
<stop stop-color="#AAF4BF"/>
<stop offset="0.27" stop-color="#AEFB8C"/>
<stop offset="0.62" stop-color="#4CE059"/>
<stop offset="1" stop-color="#1CB744"/>
</linearGradient>
<linearGradient id="paint8_linear_66_2217" x1="64.9413" y1="20.5215" x2="202.351" y2="39.5486" gradientUnits="userSpaceOnUse">
<stop stop-color="#AAF4BF"/>
<stop offset="0.27" stop-color="#AEFB8C"/>
<stop offset="0.62" stop-color="#4CE059"/>
<stop offset="1" stop-color="#1CB744"/>
</linearGradient>
<linearGradient id="paint9_linear_66_2217" x1="65.3191" y1="17.7931" x2="202.729" y2="36.8178" gradientUnits="userSpaceOnUse">
<stop stop-color="#AAF4BF"/>
<stop offset="0.27" stop-color="#AEFB8C"/>
<stop offset="0.62" stop-color="#4CE059"/>
<stop offset="1" stop-color="#1CB744"/>
</linearGradient>
<linearGradient id="paint10_linear_66_2217" x1="65.6831" y1="15.1511" x2="203.093" y2="34.1782" gradientUnits="userSpaceOnUse">
<stop stop-color="#AAF4BF"/>
<stop offset="0.27" stop-color="#AEFB8C"/>
<stop offset="0.62" stop-color="#4CE059"/>
<stop offset="1" stop-color="#1CB744"/>
</linearGradient>
<clipPath id="clip0_66_2217">
<rect width="200" height="64" fill="white"/>
</clipPath>
</defs>
</svg>
