<svg width="30" height="30" viewBox="0 0 30 30" fill="none" xmlns="http://www.w3.org/2000/svg">
<path d="M10 5H26M10 12H26M10 19H26" stroke="white" stroke-width="1.5" stroke-linecap="round" stroke-linejoin="round"/>
<path fill-rule="evenodd" clip-rule="evenodd" d="M2 20.9447C2 18.8127 2 17.7467 2.252 17.388C2.50333 17.03 3.50533 16.6867 5.51 16.0007L5.892 15.87C6.93667 15.512 7.45867 15.3333 8 15.3333C8.54133 15.3333 9.06333 15.512 10.108 15.87L10.49 16.0007C12.4947 16.6867 13.4967 17.03 13.748 17.388C14 17.7467 14 18.8133 14 20.9447V21.994C14 25.7527 11.174 27.5773 9.40067 28.3513C8.92 28.5613 8.68 28.6667 8 28.6667C7.32 28.6667 7.08 28.5613 6.59933 28.3513C4.826 27.5767 2 25.7533 2 21.994V20.9447ZM8 18.8333C8.13261 18.8333 8.25979 18.886 8.35355 18.9798C8.44732 19.0735 8.5 19.2007 8.5 19.3333V22C8.5 22.1326 8.44732 22.2598 8.35355 22.3536C8.25979 22.4473 8.13261 22.5 8 22.5C7.86739 22.5 7.74022 22.4473 7.64645 22.3536C7.55268 22.2598 7.5 22.1326 7.5 22V19.3333C7.5 19.2007 7.55268 19.0735 7.64645 18.9798C7.74022 18.886 7.86739 18.8333 8 18.8333ZM8 24.6667C8.17681 24.6667 8.34638 24.5964 8.4714 24.4714C8.59643 24.3464 8.66667 24.1768 8.66667 24C8.66667 23.8232 8.59643 23.6536 8.4714 23.5286C8.34638 23.4036 8.17681 23.3333 8 23.3333C7.82319 23.3333 7.65362 23.4036 7.5286 23.5286C7.40357 23.6536 7.33333 23.8232 7.33333 24C7.33333 24.1768 7.40357 24.3464 7.5286 24.4714C7.65362 24.5964 7.82319 24.6667 8 24.6667Z" fill="#EA4444"/>
</svg>
