<svg width="24" height="24" viewBox="0 0 24 24" fill="none" xmlns="http://www.w3.org/2000/svg">
<path d="M18.726 15.7249C18.8129 15.6383 18.8818 15.5353 18.9288 15.422C18.9758 15.3087 19 15.1873 19 15.0646C19 14.9419 18.9758 14.8205 18.9288 14.7072C18.8818 14.5939 18.8129 14.491 18.726 14.4043L12.5261 8.20439C12.4571 8.13523 12.3751 8.08036 12.2848 8.04292C12.1946 8.00548 12.0978 7.98621 12.0001 7.98621C11.9024 7.98621 11.8056 8.00548 11.7154 8.04292C11.6251 8.08036 11.5431 8.13523 11.4741 8.20439L5.27418 14.4043C4.9086 14.7699 4.9086 15.3593 5.27418 15.7249C5.63976 16.0905 6.22917 16.0905 6.59475 15.7249L12.0038 10.3233L17.4129 15.7323C17.771 16.0905 18.3679 16.0905 18.726 15.7249Z" fill="white"/>
</svg>
