<svg width="20" height="20" viewBox="0 0 20 20" fill="none" xmlns="http://www.w3.org/2000/svg">
<path d="M1.66602 9.99999C1.66602 6.07166 1.66602 4.10749 2.88602 2.88666C4.10768 1.66666 6.07102 1.66666 9.99935 1.66666C13.9277 1.66666 15.8918 1.66666 17.1118 2.88666C18.3327 4.10832 18.3327 6.07166 18.3327 9.99999C18.3327 13.9283 18.3327 15.8925 17.1118 17.1125C15.8927 18.3333 13.9277 18.3333 9.99935 18.3333C6.07102 18.3333 4.10685 18.3333 2.88602 17.1125C1.66602 15.8933 1.66602 13.9283 1.66602 9.99999Z" stroke="white" stroke-width="1.25"/>
<path d="M5 5.83334V14.1667" stroke="white" stroke-width="1.25" stroke-linecap="round"/>
<path d="M9.16602 10C9.16602 9.6717 9.23068 9.34661 9.35632 9.04329C9.48195 8.73998 9.6661 8.46438 9.89825 8.23223C10.1304 8.00009 10.406 7.81594 10.7093 7.6903C11.0126 7.56466 11.3377 7.5 11.666 7.5C11.9943 7.5 12.3194 7.56466 12.6227 7.6903C12.926 7.81594 13.2016 8.00009 13.4338 8.23223C13.6659 8.46438 13.8501 8.73998 13.9757 9.04329C14.1014 9.34661 14.166 9.6717 14.166 10C14.166 10.663 13.9026 11.2989 13.4338 11.7678C12.9649 12.2366 12.3291 12.5 11.666 12.5C11.003 12.5 10.3671 12.2366 9.89825 11.7678C9.42941 11.2989 9.16602 10.663 9.16602 10Z" stroke="white" stroke-width="1.25"/>
<path d="M13.7507 7.91666L15.0007 6.66666M8.33398 13.3333L9.58398 12.0833M9.58398 7.91666L8.33398 6.66666M15.0007 13.3333L13.7507 12.0833" stroke="white" stroke-width="1.25" stroke-linecap="round"/>
</svg>
