<svg width="20" height="20" viewBox="0 0 20 20" fill="none" xmlns="http://www.w3.org/2000/svg">
<path d="M7.50065 9.16668C8.42113 9.16668 9.16732 8.42048 9.16732 7.50001C9.16732 6.57954 8.42113 5.83334 7.50065 5.83334C6.58018 5.83334 5.83398 6.57954 5.83398 7.50001C5.83398 8.42048 6.58018 9.16668 7.50065 9.16668Z" stroke="white" stroke-width="1.25"/>
<path d="M10.8327 12.5C10.8327 13.4208 10.8327 14.1667 7.49935 14.1667C4.16602 14.1667 4.16602 13.4208 4.16602 12.5C4.16602 11.5792 5.65768 10.8333 7.49935 10.8333C9.34102 10.8333 10.8327 11.5792 10.8327 12.5Z" stroke="white" stroke-width="1.25"/>
<path d="M1.66602 10C1.66602 6.85751 1.66602 5.28584 2.64268 4.31001C3.61935 3.33418 5.19018 3.33334 8.33268 3.33334H11.666C14.8085 3.33334 16.3802 3.33334 17.356 4.31001C18.3318 5.28668 18.3327 6.85751 18.3327 10C18.3327 13.1425 18.3327 14.7142 17.356 15.69C16.3793 16.6658 14.8085 16.6667 11.666 16.6667H8.33268C5.19018 16.6667 3.61852 16.6667 2.64268 15.69C1.66685 14.7133 1.66602 13.1425 1.66602 10Z" stroke="white" stroke-width="1.25"/>
<path d="M15.8327 10H12.4993M15.8327 7.5H11.666M15.8327 12.5H13.3327" stroke="white" stroke-width="1.25" stroke-linecap="round"/>
</svg>
