<svg width="20" height="20" viewBox="0 0 20 20" fill="none" xmlns="http://www.w3.org/2000/svg">
<path d="M1.66602 9.99998C1.66602 6.85748 1.66602 5.28581 2.64268 4.30998C3.61935 3.33415 5.19018 3.33331 8.33268 3.33331H11.666C14.8085 3.33331 16.3802 3.33331 17.356 4.30998C18.3318 5.28665 18.3327 6.85748 18.3327 9.99998C18.3327 13.1425 18.3327 14.7141 17.356 15.69C16.3793 16.6658 14.8085 16.6666 11.666 16.6666H8.33268C5.19018 16.6666 3.61852 16.6666 2.64268 15.69C1.66685 14.7133 1.66602 13.1425 1.66602 9.99998Z" stroke="white" stroke-width="1.25"/>
<path d="M5 6.66663L6.79917 8.16663C8.33 9.44163 9.095 10.0791 10 10.0791C10.905 10.0791 11.6708 9.44163 13.2008 8.16579L15 6.66663" stroke="white" stroke-width="1.25" stroke-linecap="round"/>
</svg>
