<svg width="20" height="20" viewBox="0 0 20 20" fill="none" xmlns="http://www.w3.org/2000/svg">
<path d="M1.96989 10.7984C1.65322 8.60085 1.49489 7.50169 1.94572 6.56252C2.39656 5.62335 3.35489 5.05169 5.27239 3.91002L6.42656 3.22252C8.16656 2.18502 9.03822 1.66669 9.99989 1.66669C10.9616 1.66669 11.8324 2.18502 13.5732 3.22252L14.7274 3.91002C16.6441 5.05169 17.6032 5.62335 18.0541 6.56252C18.5049 7.50169 18.3457 8.60085 18.0291 10.7984L17.7974 12.4125C17.3916 15.2359 17.1882 16.6467 16.2091 17.49C15.2299 18.3334 13.7941 18.3334 10.9216 18.3334H9.07822C6.20572 18.3334 4.76989 18.3334 3.79072 17.49C2.81156 16.6467 2.60822 15.2359 2.20239 12.4125L1.96989 10.7984Z" stroke="#4CE059" stroke-width="1.25"/>
<path d="M12.5 15H7.5" stroke="#4CE059" stroke-width="1.25" stroke-linecap="round"/>
</svg>
