<svg width="20" height="20" viewBox="0 0 20 20" fill="none" xmlns="http://www.w3.org/2000/svg">
<path d="M16.0457 1.50272C15.1229 0.450927 13.4548 1.05634e-08 11.3209 1.05634e-08H5.12748C4.91633 -3.2565e-05 4.7121 0.075279 4.55152 0.212388C4.39095 0.349496 4.28457 0.539403 4.25152 0.747947L1.67271 17.1034C1.62145 17.4259 1.87118 17.7179 2.19807 17.7179H6.02165L6.98191 11.6272L6.95211 11.8179C7.02052 11.3874 7.38873 11.0698 7.82476 11.0698H9.64171C13.2111 11.0698 16.006 9.62 16.8224 5.42603C16.8467 5.30199 16.8677 5.18126 16.8858 5.06331C16.7828 5.00874 16.7828 5.00874 16.8858 5.06331C17.1289 3.51318 16.8842 2.45801 16.0457 1.50272Z" fill="#27346A"/>
<path d="M8.44496 4.5049C8.54946 4.45505 8.66381 4.42925 8.7796 4.4294H13.6351C14.2101 4.4294 14.7464 4.46682 15.2364 4.5457C15.3735 4.56758 15.51 4.59368 15.6455 4.62397C15.8376 4.66637 16.0274 4.71824 16.2144 4.7794C16.4553 4.85987 16.6797 4.95358 16.8859 5.06331C17.1289 3.51258 16.8842 2.45801 16.0457 1.50272C15.1224 0.450927 13.4548 0 11.3209 0H5.12695C4.69085 0 4.31986 0.317483 4.25152 0.747947L1.67271 17.1028C1.62145 17.4258 1.87118 17.7175 2.19754 17.7175H6.02165L8.0139 5.08371C8.03351 4.95953 8.08298 4.84198 8.15807 4.74116C8.23315 4.64033 8.33161 4.55926 8.44496 4.5049Z" fill="#27346A"/>
<path d="M16.8246 5.42604C16.0082 9.61942 13.2134 11.0698 9.64389 11.0698H7.8264C7.39038 11.0698 7.0221 11.3874 6.95435 11.8179L5.75972 19.3911C5.71508 19.6733 5.93336 19.9291 6.21892 19.9291H9.4421C9.62673 19.929 9.80529 19.8631 9.94566 19.7432C10.086 19.6232 10.179 19.4571 10.2079 19.2748L10.2393 19.1105L10.8467 15.2605L10.8859 15.0477C10.9147 14.8653 11.0077 14.6993 11.148 14.5793C11.2884 14.4594 11.4669 14.3935 11.6516 14.3934H12.134C15.2563 14.3934 17.7011 13.1249 18.4155 9.4563C18.7138 7.92319 18.5595 6.64319 17.7706 5.74412C17.5313 5.4718 17.2342 5.2469 16.888 5.06332C16.8693 5.18187 16.8489 5.302 16.8246 5.42604Z" fill="#2790C3"/>
<path d="M16.0319 4.72263C15.9046 4.68546 15.7761 4.65255 15.6466 4.62396C15.511 4.59415 15.3746 4.56822 15.2375 4.54621C14.7469 4.46681 14.211 4.42932 13.6355 4.42932H8.78061C8.66475 4.42913 8.55035 4.45514 8.44597 4.50542C8.33247 4.55958 8.23389 4.6406 8.15877 4.74145C8.08364 4.84231 8.03424 4.95997 8.01485 5.08422L6.98293 11.6271L6.95312 11.8179C7.02101 11.3873 7.38922 11.0698 7.82531 11.0698H9.64279C13.2122 11.0698 16.007 9.61999 16.8235 5.42601C16.8478 5.30197 16.8682 5.18177 16.8869 5.0633C16.6802 4.95425 16.4563 4.85979 16.2154 4.77992C16.1546 4.75976 16.0934 4.74066 16.0319 4.72263" fill="#1F264F"/>
</svg>
