<svg width="24" height="24" viewBox="0 0 24 24" fill="none" xmlns="http://www.w3.org/2000/svg">
<path d="M4.72787 16.137C3.18287 14.591 2.40987 13.819 2.12287 12.816C1.83487 11.813 2.08087 10.748 2.57287 8.619L2.85587 7.391C3.26887 5.599 3.47587 4.703 4.08887 4.089C4.70187 3.475 5.59887 3.269 7.39087 2.856L8.61887 2.572C10.7489 2.081 11.8129 1.835 12.8159 2.122C13.8189 2.41 14.5909 3.183 16.1359 4.728L17.9659 6.558C20.6569 9.248 21.9999 10.592 21.9999 12.262C21.9999 13.933 20.6559 15.277 17.9669 17.966C15.2769 20.656 13.9329 22 12.2619 22C10.5919 22 9.24687 20.656 6.55787 17.967L4.72787 16.137Z" stroke="white" stroke-width="1.5"/>
<path d="M15.3904 15.39C15.9754 14.803 16.0544 13.933 15.5664 13.444C15.0784 12.955 14.2074 13.035 13.6214 13.621C13.0364 14.207 12.1654 14.286 11.6774 13.798C11.1894 13.31 11.2684 12.439 11.8544 11.854M11.8544 11.854L11.5004 11.5M11.8544 11.854C12.1854 11.522 12.6074 11.354 13.0004 11.357M15.7434 15.743L15.3894 15.389C14.9894 15.79 14.4544 15.954 14.0004 15.86" stroke="white" stroke-width="1.5" stroke-linecap="round"/>
<path d="M10.0219 10.2932C10.803 9.51217 10.803 8.24584 10.0219 7.46479C9.24089 6.68374 7.97456 6.68374 7.19351 7.46479C6.41246 8.24584 6.41246 9.51217 7.19351 10.2932C7.97456 11.0743 9.24089 11.0743 10.0219 10.2932Z" stroke="white" stroke-width="1.5"/>
</svg>
